G04 Layer_Physical_Order=2*
G04 Layer_Color=16711680*
%FSLAX44Y44*%
%MOMM*%
G71*
G01*
G75*
%ADD12C,1.0000*%
%ADD13C,8.0000*%
%ADD14C,2.0000*%
%ADD15C,1.5000*%
%ADD16C,3.0000*%
%ADD17C,0.5000*%
%ADD19C,0.8000*%
%ADD20C,5.0000*%
%ADD21C,1.5000*%
%ADD22R,1.5000X1.5000*%
%ADD23O,9.0000X4.5000*%
%ADD24O,1.0000X2.0000*%
%ADD25R,1.0000X2.0000*%
%ADD26R,1.5000X1.5000*%
%ADD27C,1.3500*%
%ADD28R,1.3500X1.3500*%
%ADD29C,1.4000*%
%ADD30R,1.6000X2.5000*%
%ADD31O,1.6000X2.5000*%
%ADD32R,6.0000X6.0000*%
%ADD33R,1.3500X1.3500*%
%ADD34C,1.3000*%
%ADD35C,1.8500*%
%ADD36R,1.8500X1.8500*%
%ADD37O,1.3208X2.6416*%
%ADD38O,1.5000X2.0000*%
%ADD39O,1.5000X2.0000*%
%ADD40C,1.3080*%
%ADD41R,5.0000X5.0000*%
%ADD42O,1.5000X6.0000*%
%ADD43R,2.5000X1.6000*%
%ADD44O,2.5000X1.6000*%
%ADD45R,2.5000X2.5000*%
%ADD46C,2.5000*%
%ADD47C,4.0000*%
%ADD48R,1.5000X2.0000*%
%ADD49O,1.5000X2.0000*%
%ADD50R,2.0000X2.0000*%
%ADD51C,2.0000*%
%ADD52C,1.5240*%
%ADD53C,1.2700*%
%ADD54C,4.0000*%
G36*
X1735929Y943864D02*
Y800000D01*
X1729247Y790000D01*
X1714071D01*
Y915000D01*
Y925000D01*
Y942569D01*
X1719100Y945929D01*
X1725929Y948757D01*
X1735929Y943864D01*
D02*
G37*
G36*
X2010000Y1335619D02*
X2000761Y1331792D01*
X1893396Y1439157D01*
X1890690Y1445690D01*
X1875000Y1452189D01*
X1859310Y1445690D01*
X1852811Y1430000D01*
X1859310Y1414310D01*
X1865843Y1411604D01*
X1980517Y1296930D01*
Y1140000D01*
X1946210D01*
X1939529Y1150000D01*
X1951955Y1180000D01*
X1936738Y1216738D01*
X1900000Y1231955D01*
X1893043D01*
X1887947Y1241955D01*
X1890753Y1248730D01*
X1875000D01*
Y1250000D01*
X1873730D01*
Y1265753D01*
X1864546Y1261949D01*
X1863021Y1261627D01*
X1853673Y1263945D01*
X1846430Y1281430D01*
X1825000Y1290307D01*
X1803570Y1281430D01*
X1794693Y1260000D01*
X1802168Y1241955D01*
X1797119Y1231955D01*
X1750000D01*
X1713262Y1216738D01*
X1711955Y1213582D01*
X1701955Y1215571D01*
Y1250000D01*
X1686738Y1286737D01*
X1601738Y1371738D01*
X1565000Y1386955D01*
X1544520D01*
X1542531Y1396955D01*
X1546431Y1398570D01*
X1555307Y1420000D01*
X1546431Y1441431D01*
X1525000Y1450307D01*
X1503570Y1441431D01*
X1503424Y1441078D01*
X1492600D01*
X1490690Y1445690D01*
X1475000Y1452189D01*
X1459310Y1445690D01*
X1452811Y1430000D01*
X1459310Y1414310D01*
X1475000Y1407811D01*
X1486880Y1412732D01*
X1490690Y1414310D01*
X1499014Y1409569D01*
X1503570Y1398570D01*
X1507469Y1396955D01*
X1505480Y1386955D01*
X1400000D01*
X1383209Y1380000D01*
X315000Y1380000D01*
X268310Y1333310D01*
X259071Y1337137D01*
Y1445000D01*
Y1455000D01*
Y1485929D01*
X2010000D01*
Y1335619D01*
D02*
G37*
G36*
X512447Y720000D02*
X531223Y701223D01*
X545000Y695517D01*
X553471D01*
X556919Y685517D01*
X553677Y682979D01*
X550870Y684141D01*
Y673800D01*
Y663459D01*
X557284Y666116D01*
X562873Y662575D01*
X563137Y661937D01*
X575000Y657023D01*
X586863Y661937D01*
X591777Y673800D01*
X586863Y685663D01*
X589206Y695517D01*
X831725D01*
X835579Y685517D01*
X831223Y675000D01*
X836137Y663137D01*
X848000Y658223D01*
X853917Y654269D01*
Y651600D01*
X859623Y637824D01*
X872689Y632412D01*
X884591Y620510D01*
Y618250D01*
X887127Y612127D01*
X887984Y607546D01*
X879862Y597989D01*
X791876D01*
X790532Y600000D01*
X785983Y610983D01*
X775000Y615532D01*
X768859Y612989D01*
X645000D01*
X635816Y609184D01*
X600675Y574044D01*
X588879Y576390D01*
X588502Y577302D01*
X582470Y579800D01*
Y570000D01*
X581200D01*
Y568730D01*
X571400D01*
X571482Y568531D01*
X568520Y556480D01*
X563764Y545000D01*
X568520Y533519D01*
X580000Y528764D01*
X587840Y532011D01*
X590000D01*
X596529Y534716D01*
X608045Y533045D01*
X620000Y528093D01*
X631955Y533045D01*
X642572Y532545D01*
X650000Y529468D01*
X655769Y531857D01*
X659017Y524017D01*
X670000Y519468D01*
X680983Y524017D01*
X683527Y530158D01*
X695380Y542011D01*
X738601D01*
X739945Y540000D01*
X740284Y539180D01*
X742520Y532568D01*
X737127Y527873D01*
X734591Y521750D01*
Y508250D01*
X737127Y502127D01*
X743250Y499591D01*
X756750D01*
X762873Y502127D01*
X765409Y508250D01*
Y521750D01*
X762873Y527873D01*
X757480Y532568D01*
X759716Y539180D01*
X760055Y540000D01*
X761399Y542011D01*
X773124D01*
X774468Y540000D01*
X779017Y529017D01*
X790000Y524468D01*
X796141Y527011D01*
X905000D01*
X914184Y530816D01*
X915808Y534735D01*
X1005444Y624371D01*
X1012890Y622890D01*
X1018730Y620471D01*
Y630000D01*
X1020000D01*
Y631270D01*
X1029529D01*
X1027110Y637111D01*
X1025629Y644557D01*
X1063084Y682011D01*
X1250736D01*
X1256223Y673800D01*
X1261137Y661937D01*
X1273000Y657023D01*
X1284863Y661937D01*
X1287888Y658007D01*
X1288450Y656650D01*
X1300536Y644565D01*
X1296912Y634047D01*
X1292698Y632302D01*
X1290476Y626937D01*
X1290200Y626270D01*
X1300000D01*
Y623730D01*
X1290200D01*
X1292698Y617698D01*
X1292783Y617663D01*
X1293898Y607301D01*
X1293572Y606513D01*
X1291400Y601270D01*
X1311000D01*
X1310750Y601874D01*
X1318250Y609591D01*
X1331750D01*
X1338889Y601724D01*
X1339250Y600850D01*
X1360050Y580050D01*
X1370000Y575929D01*
X1440000D01*
X1449950Y580050D01*
X1481254Y611355D01*
X1486480Y613520D01*
X1491236Y625000D01*
X1486480Y636480D01*
X1475000Y641236D01*
X1463519Y636480D01*
X1461355Y631254D01*
X1434171Y604071D01*
X1384225D01*
X1382110Y607066D01*
X1381862Y609037D01*
X1386774Y617795D01*
X1386868Y617793D01*
X1392656Y617219D01*
X1397530Y615200D01*
Y625000D01*
Y634800D01*
X1396863Y634524D01*
X1392656Y632781D01*
X1386868Y632207D01*
X1382110Y632110D01*
X1380817Y632646D01*
X1376270Y634529D01*
Y625000D01*
X1373730D01*
Y634529D01*
X1373271Y634339D01*
X1363271Y640557D01*
Y652716D01*
X1371586Y658271D01*
X1374600Y657023D01*
X1386463Y661937D01*
X1386728Y662575D01*
X1392316Y666116D01*
X1398730Y663459D01*
Y673800D01*
Y684141D01*
X1397589Y683669D01*
X1387589Y689823D01*
Y690400D01*
X1384348Y698223D01*
X1388212Y708223D01*
X1520000D01*
X1520000Y708223D01*
X1531863Y713137D01*
X1538726Y720000D01*
X1919693D01*
X1928570Y698570D01*
X1941635Y693158D01*
X1966340Y668453D01*
X1960676Y659975D01*
X1951270Y663871D01*
Y640000D01*
Y616129D01*
X1965105Y621860D01*
X1975105Y617537D01*
Y590732D01*
X1965105Y584050D01*
X1950000Y590307D01*
X1928570Y581430D01*
X1919693Y560000D01*
X1928570Y538570D01*
X1950000Y529693D01*
X1965105Y535950D01*
X1975105Y529268D01*
Y510732D01*
X1965105Y504050D01*
X1950000Y510307D01*
X1928570Y501430D01*
X1919693Y480000D01*
X1928570Y458570D01*
X1950000Y449693D01*
X1965105Y455950D01*
X1975105Y449268D01*
Y430732D01*
X1965105Y424051D01*
X1950000Y430307D01*
X1940982Y426572D01*
X1904483Y463070D01*
Y577500D01*
X1898777Y591277D01*
X1788777Y701276D01*
X1775000Y706983D01*
X1761224Y701276D01*
X1755517Y687500D01*
X1761224Y673723D01*
X1774841Y660106D01*
X1771420Y649384D01*
X1767316Y647684D01*
X1764133Y640000D01*
Y638770D01*
X1775000D01*
Y637500D01*
X1776270D01*
Y624659D01*
X1782684Y627316D01*
X1785867Y635000D01*
X1795867Y639079D01*
X1865517Y569430D01*
Y542756D01*
X1865194Y542546D01*
X1855517Y539690D01*
X1812603Y582603D01*
X1795000Y589895D01*
X1781934Y584483D01*
X1691000D01*
X1677223Y578777D01*
X1642106Y543659D01*
X1641000D01*
X1634877Y541123D01*
X1632341Y535000D01*
Y526989D01*
X1631517Y525000D01*
X1632341Y523011D01*
Y515000D01*
X1634877Y508877D01*
X1641000Y506341D01*
X1649011D01*
X1651000Y505517D01*
X1652989Y506341D01*
X1661000D01*
X1667123Y508877D01*
X1669659Y515000D01*
Y516106D01*
X1699070Y545517D01*
X1728841D01*
Y542800D01*
X1731377Y536677D01*
X1734983Y527680D01*
X1734590Y526670D01*
X1750000D01*
X1765410D01*
X1765017Y527680D01*
X1768623Y536677D01*
X1770780Y541885D01*
X1775753Y543183D01*
X1781159Y543634D01*
X1815105Y509688D01*
Y375000D01*
X1822397Y357397D01*
X1877397Y302396D01*
X1895000Y295105D01*
X1927287D01*
X1927459Y294895D01*
X1922729Y284895D01*
X1870312D01*
X1856603Y298603D01*
X1839000Y305895D01*
X1775051D01*
X1773240Y307348D01*
X1769047Y315895D01*
X1772819Y325000D01*
X1767746Y337246D01*
X1765963Y346639D01*
X1766314Y348964D01*
X1766383Y349130D01*
X1751000D01*
X1735618D01*
X1735687Y348964D01*
X1736038Y346639D01*
X1734254Y337246D01*
X1734254D01*
X1734254Y337246D01*
X1730409Y327962D01*
X1708342Y305895D01*
X1675895D01*
Y350000D01*
X1669638Y365105D01*
X1674167Y375105D01*
X1720000D01*
X1722929Y376318D01*
X1729841Y369406D01*
Y367800D01*
X1732377Y361677D01*
X1735983Y352680D01*
X1735590Y351670D01*
X1751000D01*
X1766411D01*
X1766017Y352680D01*
X1769623Y361677D01*
X1770736Y364364D01*
X1772159Y367800D01*
Y383800D01*
X1769623Y389923D01*
X1763500Y392459D01*
X1761894D01*
X1740577Y413777D01*
X1738901Y414471D01*
X1737603Y417604D01*
X1727812Y421659D01*
X1727604Y432380D01*
X1727665Y432544D01*
X1733015Y445462D01*
X1763777Y476223D01*
X1769483Y490000D01*
Y494362D01*
X1771818Y500000D01*
X1766746Y512246D01*
X1764963Y521638D01*
X1765314Y523964D01*
X1765382Y524130D01*
X1750000D01*
X1734618D01*
X1734686Y523964D01*
X1735037Y521638D01*
X1733254Y512246D01*
X1733254D01*
X1733254Y512246D01*
X1728182Y500000D01*
X1729431Y496984D01*
X1707342Y474895D01*
X1651000D01*
X1633397Y467604D01*
X1626105Y450000D01*
Y400000D01*
X1633397Y382397D01*
X1638188Y380412D01*
Y369588D01*
X1633397Y367603D01*
X1626105Y350000D01*
Y300000D01*
Y291312D01*
X1614688Y279895D01*
X1505312D01*
X1442603Y342604D01*
X1429538Y348016D01*
X1419483Y358070D01*
Y410929D01*
X1440020D01*
X1443250Y409591D01*
X1456750D01*
X1462873Y412127D01*
X1465409Y418250D01*
Y431750D01*
X1462873Y437873D01*
X1465016Y447709D01*
X1465965Y450000D01*
X1461289Y461289D01*
X1450000Y465965D01*
X1445427Y464071D01*
X1419286D01*
X1415144Y474071D01*
X1458084Y517011D01*
X1543859D01*
X1550000Y514468D01*
X1560983Y519017D01*
X1565532Y530000D01*
X1560983Y540983D01*
X1550000Y545532D01*
X1543859Y542989D01*
X1455000D01*
X1445816Y539184D01*
X1444192Y535265D01*
X1396238Y487311D01*
X1390932Y489286D01*
X1386999Y492214D01*
X1386999Y496245D01*
X1386999Y496245D01*
X1386999Y496255D01*
Y498730D01*
X1376270D01*
Y488001D01*
X1378745D01*
X1378755Y488001D01*
X1378755D01*
X1382786Y488001D01*
X1385714Y484068D01*
X1387689Y478762D01*
X1344570Y435643D01*
X1335035Y437956D01*
X1333342Y448107D01*
X1333600Y448730D01*
X1323800D01*
Y450000D01*
X1322530D01*
Y459800D01*
X1316499Y457302D01*
X1315105Y453937D01*
X1304235Y450664D01*
X1278209Y476690D01*
X1282036Y485929D01*
X1313094D01*
X1324200Y481329D01*
X1337403Y486797D01*
X1342871Y500000D01*
X1337403Y513203D01*
X1324200Y518671D01*
X1313094Y514071D01*
X1263914D01*
X1262377Y517781D01*
X1251200Y522411D01*
X1247786Y529555D01*
X1249928Y534585D01*
X1255815Y538028D01*
X1264337Y535637D01*
X1276200Y530723D01*
X1288063Y535637D01*
X1292977Y547500D01*
Y552500D01*
X1288063Y564363D01*
X1276200Y569277D01*
X1264337Y564363D01*
X1254834Y561696D01*
X1252070Y562841D01*
Y550000D01*
X1249530D01*
Y562841D01*
X1243116Y560184D01*
X1237528Y563725D01*
X1237263Y564363D01*
X1225400Y569277D01*
X1214233Y564651D01*
X1213623Y566123D01*
X1207500Y568659D01*
X1192500D01*
X1189071Y570950D01*
Y590019D01*
X1189618Y591340D01*
X1199648Y595453D01*
X1205050Y590050D01*
X1215000Y585929D01*
X1219774D01*
X1225000Y583764D01*
X1236480Y588519D01*
X1241236Y600000D01*
X1236480Y611480D01*
X1238562Y621442D01*
X1240036Y625000D01*
X1235280Y636480D01*
X1230054Y638645D01*
X1213750Y654950D01*
X1203800Y659071D01*
X1145000D01*
X1135050Y654950D01*
X1118284Y638183D01*
X1113711Y636289D01*
X1109035Y625000D01*
X1109984Y622709D01*
X1112127Y612873D01*
X1109591Y606750D01*
Y593250D01*
X1110929Y590019D01*
Y580000D01*
X1115050Y570050D01*
X1112127Y562873D01*
X1107432Y557480D01*
X1101270Y559564D01*
Y550000D01*
X1100000D01*
Y548730D01*
X1090471D01*
X1092890Y542890D01*
X1093567Y542609D01*
X1095914Y530813D01*
X1088850Y523750D01*
X1087230Y519837D01*
X1081350Y514471D01*
X1075489Y515636D01*
X1074670Y515975D01*
Y500000D01*
X1072130D01*
Y515975D01*
X1072071Y515951D01*
X1062071Y522338D01*
Y541252D01*
X1065695Y550000D01*
X1064071Y553920D01*
Y559171D01*
X1069490Y564591D01*
X1071750D01*
X1077873Y567127D01*
X1080409Y573250D01*
Y586750D01*
X1077873Y592873D01*
X1071750Y595409D01*
X1058250D01*
X1052127Y592873D01*
X1049591Y586750D01*
X1045409Y584732D01*
X1042794Y585260D01*
X1034334Y589345D01*
X1032873Y592873D01*
X1026750Y595409D01*
X1013250D01*
X1007127Y592873D01*
X1004591Y586750D01*
Y574490D01*
X992822Y562721D01*
X988902Y561098D01*
X984305Y550000D01*
X988902Y538902D01*
X992822Y537279D01*
X998450Y531650D01*
X994617Y521341D01*
X992662Y520532D01*
X984500Y518214D01*
X976338Y520532D01*
X971800Y522411D01*
X967262Y520532D01*
X959100Y518214D01*
X950938Y520532D01*
X946400Y522411D01*
X941862Y520532D01*
X933700Y518214D01*
X925538Y520532D01*
X921000Y522411D01*
X909822Y517781D01*
X905193Y506604D01*
Y493396D01*
X900495Y486365D01*
X860000D01*
X851964Y483036D01*
X835292Y466365D01*
X767303D01*
X760055Y475000D01*
X757110Y482110D01*
X751270Y484529D01*
Y475000D01*
X748730D01*
Y484529D01*
X742890Y482110D01*
X739945Y475000D01*
X732697Y466365D01*
X720000D01*
X711964Y463036D01*
X634077Y385150D01*
X624017Y380983D01*
X619468Y370000D01*
X617186Y367718D01*
X610000Y370695D01*
X598902Y366098D01*
X594305Y355000D01*
X595929Y351080D01*
Y334981D01*
X594591Y331750D01*
Y318250D01*
X597127Y312127D01*
X603250Y309591D01*
X616750D01*
X622873Y312127D01*
X625409Y318250D01*
Y324688D01*
X635409Y331369D01*
X640000Y329468D01*
X650983Y334017D01*
X655532Y345000D01*
X664771Y346808D01*
X666488Y346273D01*
X667890Y342890D01*
X673730Y340470D01*
Y350000D01*
X675000D01*
Y351270D01*
X684529D01*
X682110Y357110D01*
X678727Y358512D01*
X675367Y369294D01*
X725352Y419279D01*
X735725Y415511D01*
X737127Y412127D01*
X743250Y409591D01*
X756750D01*
X762873Y412127D01*
X765409Y418250D01*
Y428635D01*
X855000D01*
X863036Y431964D01*
X879708Y448635D01*
X903810D01*
X908602Y438635D01*
X905193Y430404D01*
Y417196D01*
X908558Y409071D01*
X903704Y399071D01*
X900000D01*
X890050Y394950D01*
X880050Y384950D01*
X875929Y375000D01*
Y340000D01*
X880050Y330050D01*
X895050Y315050D01*
X905000Y310929D01*
X1015000D01*
X1024950Y315050D01*
X1034950Y325051D01*
X1037722Y331744D01*
X1039841Y335168D01*
X1049071Y337183D01*
X1049130Y337159D01*
Y350000D01*
Y362841D01*
X1046367Y361696D01*
X1036863Y364363D01*
X1025000Y369277D01*
X1021271Y367732D01*
X1011271Y374414D01*
Y395257D01*
X1021271Y401939D01*
X1022600Y401389D01*
X1033777Y406019D01*
X1036823Y406019D01*
X1048000Y401389D01*
X1059177Y406019D01*
X1062223Y406019D01*
X1073400Y401389D01*
X1084577Y406019D01*
X1096351Y408313D01*
X1097530Y407825D01*
Y423800D01*
X1100070D01*
Y407825D01*
X1100929Y408181D01*
X1110929Y402262D01*
Y344980D01*
X1109591Y341750D01*
Y328250D01*
X1112127Y322127D01*
X1118250Y319591D01*
X1131750D01*
X1137873Y322127D01*
X1140409Y328250D01*
Y340549D01*
X1143530Y343000D01*
X1149648Y345452D01*
X1155010Y340090D01*
X1156142Y339622D01*
X1164944Y335000D01*
X1167890Y327890D01*
X1170018Y327008D01*
X1172871Y325826D01*
X1173730Y325471D01*
Y335000D01*
X1176270D01*
Y325471D01*
X1182110Y327890D01*
X1182992Y330018D01*
X1185055Y335000D01*
X1185703Y335969D01*
X1194677D01*
X1200000Y333764D01*
X1211481Y338519D01*
X1216236Y350000D01*
X1211481Y361480D01*
X1204831Y364235D01*
X1204831Y375059D01*
X1212263Y378137D01*
X1213937Y378137D01*
X1225800Y373223D01*
X1237663Y378137D01*
X1239337Y378137D01*
X1251200Y373223D01*
X1263063Y378137D01*
X1267977Y390000D01*
X1265271Y396533D01*
Y413004D01*
X1265713Y414072D01*
X1276246Y417681D01*
X1296964Y396964D01*
X1305000Y393635D01*
X1330000D01*
X1338036Y396964D01*
X1372253Y431181D01*
X1380731Y425516D01*
X1380517Y425000D01*
Y350000D01*
X1386224Y336223D01*
X1397447Y325000D01*
X1341930Y269483D01*
X1186769D01*
X1182770Y279483D01*
X1184174Y282871D01*
X1184529Y283730D01*
X1165471D01*
X1165826Y282871D01*
X1167230Y279483D01*
X1163231Y269483D01*
X1153070D01*
X1146276Y276277D01*
X1144483Y277020D01*
Y285000D01*
X1138777Y298777D01*
X1125000Y304483D01*
X1120965Y302812D01*
X1111223Y298777D01*
X1105517Y285000D01*
Y281983D01*
X1094483D01*
Y300000D01*
X1089871Y311134D01*
Y340967D01*
X1092577Y347500D01*
Y352500D01*
X1087663Y364363D01*
X1075800Y369277D01*
X1063937Y364363D01*
X1063673Y363725D01*
X1058084Y360184D01*
X1051670Y362841D01*
Y350000D01*
Y337159D01*
X1051729Y337183D01*
X1061729Y330501D01*
Y315557D01*
X1054053Y308377D01*
X1051270Y309529D01*
Y300000D01*
X1050000D01*
Y298730D01*
X1040471D01*
X1042890Y292890D01*
X1048985Y290365D01*
X1051190Y285255D01*
X1048724Y276277D01*
X1041930Y269483D01*
X623742D01*
X620055Y275000D01*
X617110Y282110D01*
X611270Y284529D01*
Y275000D01*
X608730D01*
Y284529D01*
X602890Y282110D01*
X599944Y275000D01*
X596258Y269483D01*
X573742D01*
X570056Y275000D01*
X567110Y282110D01*
X561270Y284529D01*
Y275000D01*
X558730D01*
Y284529D01*
X552890Y282110D01*
X549944Y275000D01*
X546258Y269483D01*
X506870D01*
X463777Y312577D01*
X450000Y318283D01*
X384270D01*
X371848Y330706D01*
X371848Y330706D01*
X376238Y340457D01*
X382110Y342890D01*
X384529Y348730D01*
X375000D01*
Y351270D01*
X384817D01*
X392267Y358720D01*
X400000Y355517D01*
X412500Y360695D01*
X425000Y355517D01*
X437500Y360695D01*
X450000Y355517D01*
X463777Y361223D01*
X469483Y375000D01*
Y397103D01*
X470683Y400000D01*
X469483Y402897D01*
Y428800D01*
X463777Y442577D01*
X452759Y447140D01*
X451372Y450303D01*
X450075Y457522D01*
X463777Y471223D01*
X469483Y485000D01*
Y505000D01*
X463777Y518777D01*
X450000Y524483D01*
X444483Y528170D01*
Y535000D01*
X438777Y548777D01*
X423777Y563777D01*
X410000Y569483D01*
X375000D01*
X361223Y563777D01*
X355517Y550000D01*
X361223Y536223D01*
X371718Y531876D01*
X372262Y521278D01*
X366224Y518777D01*
X361223Y513777D01*
X355517Y500000D01*
X361223Y486223D01*
X367096Y483791D01*
X369442Y471995D01*
X361223Y463777D01*
X355517Y450000D01*
X361223Y436223D01*
X375000Y430517D01*
X380517Y421978D01*
Y417054D01*
X375000Y413367D01*
X374458Y413143D01*
X367107Y410487D01*
X363223Y416123D01*
X357100Y418659D01*
X351589D01*
X349600Y419483D01*
X347611Y418659D01*
X342100D01*
X335977Y416123D01*
X334427Y412380D01*
X311223Y389177D01*
X305517Y375400D01*
Y350000D01*
X311223Y336223D01*
X362423Y285023D01*
X376200Y279317D01*
X441930D01*
X462008Y259239D01*
X458181Y250000D01*
X270000D01*
X265000Y252071D01*
Y720000D01*
X512447D01*
D02*
G37*
G36*
X955000Y708223D02*
X955000Y708223D01*
X1029085D01*
X1032911Y698984D01*
X1019376Y685448D01*
X1012263Y686863D01*
X1000400Y691777D01*
X988537Y686863D01*
X979034Y684196D01*
X976270Y685341D01*
Y675000D01*
X973730D01*
Y685341D01*
X967316Y682684D01*
X961727Y686225D01*
X961463Y686863D01*
X950451Y691424D01*
X947475Y701016D01*
X947976Y701223D01*
X954983Y708230D01*
X955000Y708223D01*
D02*
G37*
G36*
X2010000Y1084381D02*
X2010000Y790000D01*
X1782957D01*
X1778461Y795543D01*
X1782437Y805517D01*
X1875000D01*
X1888777Y811224D01*
X1894483Y825000D01*
Y900000D01*
X1894483Y900000D01*
Y986130D01*
X1907109Y998756D01*
X1907736Y998631D01*
X1911221Y987982D01*
X1911134Y987759D01*
X1905517Y974200D01*
Y900000D01*
Y825000D01*
X1911223Y811224D01*
X1925000Y805517D01*
X1938777Y811224D01*
X1944483Y825000D01*
Y900000D01*
Y966130D01*
X1963777Y985423D01*
X1963927Y985786D01*
X1966746Y986954D01*
X1971819Y999200D01*
X1966746Y1011446D01*
X1964432Y1012404D01*
X1969483Y1024600D01*
X1965370Y1034530D01*
X1968623Y1035877D01*
X1971159Y1042000D01*
Y1058000D01*
X1970982Y1058428D01*
X2000761Y1088208D01*
X2010000Y1084381D01*
D02*
G37*
G36*
X1916984Y395462D02*
X1922396Y382397D01*
X1927935Y380103D01*
X1928570Y378570D01*
X1950000Y369693D01*
X1965105Y375950D01*
X1975105Y369268D01*
Y350732D01*
X1965105Y344050D01*
X1950000Y350307D01*
X1936935Y344895D01*
X1905312D01*
X1864895Y385312D01*
Y433410D01*
X1874895Y437552D01*
X1916984Y395462D01*
D02*
G37*
G36*
X1382541Y1137500D02*
Y1112500D01*
X1385077Y1106377D01*
X1391200Y1103841D01*
X1407200D01*
X1413323Y1106377D01*
X1413845Y1107637D01*
X1424600Y1103182D01*
X1436846Y1108254D01*
X1446239Y1110037D01*
X1448564Y1109687D01*
X1448730Y1109618D01*
Y1125000D01*
X1451270D01*
Y1109618D01*
X1458067Y1112433D01*
X1458553Y1113605D01*
X1461409Y1120500D01*
Y1123486D01*
X1470285Y1127162D01*
X1476665Y1120782D01*
X1476341Y1120000D01*
X1476341Y1099094D01*
X1476680Y1098275D01*
X1476507Y1097405D01*
X1477911Y1095304D01*
X1478877Y1092971D01*
X1479713Y1088890D01*
X1478466Y1081019D01*
X1461223Y1063776D01*
X1455517Y1050000D01*
X1457802Y1044483D01*
X1451120Y1034483D01*
X1439937D01*
X1434499Y1043250D01*
X1434499Y1044483D01*
Y1048730D01*
X1415501D01*
Y1044483D01*
X1415501Y1043721D01*
X1415465Y1043058D01*
X1414578Y1038328D01*
X1411509Y1033037D01*
X1401223Y1028777D01*
X1392749Y1020302D01*
X1382749Y1024445D01*
X1382749Y1024666D01*
X1382749Y1024666D01*
X1382749Y1024802D01*
Y1048730D01*
X1351270D01*
Y1017251D01*
X1375973D01*
X1376839Y1017251D01*
X1377352Y1016680D01*
X1383359Y1009168D01*
X1383838Y1008016D01*
X1380517Y1000000D01*
Y975000D01*
X1386224Y961223D01*
X1386587Y961073D01*
X1387754Y958254D01*
X1400000Y953182D01*
X1412246Y958254D01*
X1421639Y960037D01*
X1423964Y959686D01*
X1424130Y959617D01*
Y975000D01*
X1426670D01*
Y959589D01*
X1428427Y960274D01*
X1436729Y952960D01*
Y944200D01*
X1438469Y940000D01*
X1432035Y930000D01*
X1365699Y930000D01*
X1317459Y978240D01*
Y987500D01*
X1314923Y993623D01*
X1308800Y996159D01*
X1292800D01*
X1286677Y993623D01*
X1277680Y990017D01*
X1276670Y990410D01*
Y975000D01*
X1274130D01*
Y990382D01*
X1267404Y987596D01*
X1232288Y1022712D01*
X1234634Y1034508D01*
X1238776Y1036223D01*
X1244117Y1049117D01*
X1246278Y1051278D01*
X1256579Y1047437D01*
X1261224Y1036223D01*
X1275000Y1030517D01*
X1288777Y1036223D01*
X1294483Y1050000D01*
Y1099483D01*
X1295000Y1100000D01*
Y1105751D01*
X1300000Y1109092D01*
X1308067Y1112433D01*
X1311408Y1120500D01*
Y1123730D01*
X1300000D01*
Y1126270D01*
X1311408D01*
Y1129500D01*
X1308950Y1135435D01*
X1313699Y1145000D01*
X1374824D01*
X1382541Y1137500D01*
D02*
G37*
G36*
X1908208Y1110761D02*
X1891624Y1094177D01*
X1885917Y1080400D01*
Y1032670D01*
X1861223Y1007977D01*
X1855517Y994200D01*
Y900000D01*
X1855517Y900000D01*
Y844483D01*
X1785867D01*
Y848730D01*
X1776270D01*
Y837500D01*
X1773730D01*
Y870710D01*
X1764071Y877164D01*
Y985000D01*
X1759950Y994950D01*
X1744950Y1009950D01*
X1735000Y1014071D01*
X1695000D01*
X1685050Y1009950D01*
X1670950Y995850D01*
X1666829Y985900D01*
Y970828D01*
X1630050Y934050D01*
X1627567Y928055D01*
X1627127Y927873D01*
X1624591Y921750D01*
Y908250D01*
X1627127Y902127D01*
X1633250Y899591D01*
X1646750D01*
X1652873Y902127D01*
X1662709Y899984D01*
X1665000Y899035D01*
X1669573Y900929D01*
X1685929D01*
Y790000D01*
X1654290D01*
X1650000Y791777D01*
X1635570D01*
X1633581Y801777D01*
X1636863Y803137D01*
X1641777Y815000D01*
Y860000D01*
X1636863Y871863D01*
X1625000Y876777D01*
X1613137Y871863D01*
X1608223Y860000D01*
Y847500D01*
Y827500D01*
Y815000D01*
X1613137Y803137D01*
X1616419Y801777D01*
X1614430Y791777D01*
X1570000D01*
X1565710Y790000D01*
X1550000D01*
X1512871Y827129D01*
X1517013Y837129D01*
X1522813D01*
X1525000Y836223D01*
X1536863Y841137D01*
X1540036Y848797D01*
X1551016Y855073D01*
X1565000Y849281D01*
X1590257Y859743D01*
X1600719Y885000D01*
X1590257Y910257D01*
X1565000Y920719D01*
X1539743Y910257D01*
X1529281Y885000D01*
X1532367Y877550D01*
X1525022Y869801D01*
X1524797Y869693D01*
X1524071Y869392D01*
X1514071Y876074D01*
Y895000D01*
X1509950Y904950D01*
X1485000Y929900D01*
X1485000Y970304D01*
X1495000Y974447D01*
X1498223Y971223D01*
X1512000Y965517D01*
X1525000D01*
X1538777Y971223D01*
X1544483Y985000D01*
X1538777Y998776D01*
X1525000Y1004483D01*
X1520070D01*
X1513777Y1010776D01*
X1495776Y1028777D01*
X1495359Y1028950D01*
X1493215Y1040662D01*
X1508070Y1055517D01*
X1525000D01*
X1538777Y1061224D01*
X1544483Y1075000D01*
X1538777Y1088777D01*
X1525000Y1094483D01*
X1500000D01*
X1495000Y1092412D01*
X1485000Y1099094D01*
X1485000Y1120000D01*
X1904381Y1120000D01*
X1908208Y1110761D01*
D02*
G37*
G36*
X930862Y934239D02*
X927035Y925000D01*
X890000D01*
X871159Y943841D01*
X875302Y953841D01*
X883800D01*
X889923Y956377D01*
X891808Y960929D01*
X904172D01*
X930862Y934239D01*
D02*
G37*
G36*
X1592499Y1234025D02*
X1591819Y1230434D01*
X1580482Y1224306D01*
X1565000Y1230719D01*
X1539743Y1220257D01*
X1529281Y1195000D01*
X1539743Y1169743D01*
X1565000Y1159281D01*
X1589497Y1169428D01*
X1599496Y1167908D01*
X1604156Y1156656D01*
X1606566Y1148850D01*
X1600231Y1140000D01*
X1480000D01*
X1460000Y1160000D01*
Y1225512D01*
X1462500Y1234751D01*
X1473730D01*
Y1250000D01*
Y1265249D01*
X1465555D01*
X1461162Y1274695D01*
X1465068Y1283045D01*
X1543480D01*
X1592499Y1234025D01*
D02*
G37*
G36*
X1120000Y1105000D02*
Y1095619D01*
X1110000Y1090341D01*
X1100000Y1094483D01*
X1075000D01*
X1061224Y1088777D01*
X1036223Y1063776D01*
X1030517Y1050000D01*
X1034873Y1039483D01*
X1029898Y1029483D01*
X995000D01*
X985258Y1025448D01*
X981223Y1023777D01*
X961223Y1003776D01*
X955517Y990000D01*
Y975000D01*
X961223Y961223D01*
X961586Y961073D01*
X962754Y958254D01*
X975000Y953182D01*
X987246Y958254D01*
X996638Y960037D01*
X998964Y959686D01*
X999130Y959617D01*
Y975000D01*
X1001670D01*
Y959589D01*
X1002680Y959983D01*
X1011677Y956377D01*
X1014364Y955264D01*
X1017800Y953841D01*
X1027059D01*
X1046661Y934239D01*
X1042834Y925000D01*
X979900Y925000D01*
X919950Y984950D01*
X910000Y989071D01*
X891808D01*
X889923Y993623D01*
X883800Y996159D01*
X867800D01*
X861677Y993623D01*
X852680Y990017D01*
X851670Y990410D01*
Y975000D01*
X849130D01*
Y990382D01*
X848707Y990207D01*
X837246Y991746D01*
X825000Y996818D01*
X820179Y994821D01*
X800000Y1015000D01*
Y1030517D01*
X800000Y1030517D01*
X813777Y1036224D01*
X819483Y1050000D01*
X813777Y1063777D01*
X802554Y1075000D01*
X806165Y1085000D01*
X830517D01*
Y1050000D01*
X836223Y1036223D01*
X850000Y1030517D01*
X863776Y1036223D01*
X869483Y1050000D01*
Y1105405D01*
X875000Y1109092D01*
X883067Y1112433D01*
X886408Y1120500D01*
Y1123730D01*
X875000D01*
Y1126270D01*
X886408D01*
Y1129500D01*
X894954Y1135000D01*
X957541D01*
Y1112500D01*
X960077Y1106377D01*
X966200Y1103841D01*
X982200D01*
X988323Y1106377D01*
X988845Y1107637D01*
X999600Y1103182D01*
X1011846Y1108254D01*
X1021239Y1110037D01*
X1023564Y1109687D01*
X1023730Y1109618D01*
Y1125000D01*
X1025000D01*
Y1126270D01*
X1036409D01*
Y1129500D01*
X1040084Y1135000D01*
X1090000D01*
X1120000Y1105000D01*
D02*
G37*
G36*
X601670Y1109618D02*
X608467Y1112433D01*
X612220Y1113180D01*
X625000Y1100400D01*
Y1077553D01*
X611223Y1063776D01*
X605517Y1050000D01*
X609873Y1039483D01*
X604898Y1029483D01*
X565000D01*
X551223Y1023777D01*
X535824Y1008377D01*
X530117Y994600D01*
Y975000D01*
X535824Y961223D01*
X536187Y961073D01*
X537354Y958254D01*
X549600Y953182D01*
X561846Y958254D01*
X571239Y960037D01*
X573564Y959686D01*
X573730Y959617D01*
Y975000D01*
X576270D01*
Y959589D01*
X578027Y960274D01*
X586329Y952960D01*
Y940000D01*
X505299D01*
X467059Y978240D01*
Y987500D01*
X464523Y993623D01*
X458400Y996159D01*
X442400D01*
X436277Y993623D01*
X427280Y990017D01*
X426270Y990410D01*
Y975000D01*
Y959589D01*
X427280Y959983D01*
X436277Y956377D01*
X438964Y955264D01*
X442400Y953841D01*
X447798D01*
X450724Y950000D01*
X445771Y940000D01*
X385000D01*
X370000Y955000D01*
Y1027176D01*
X375000Y1030517D01*
X388777Y1036223D01*
X394483Y1050000D01*
X388777Y1063776D01*
X388777Y1063777D01*
X396278Y1071278D01*
X405517Y1067451D01*
Y1050000D01*
X411223Y1036223D01*
X425000Y1030517D01*
X438777Y1036223D01*
X444483Y1050000D01*
Y1105138D01*
X450400Y1109092D01*
X458467Y1112433D01*
X461808Y1120500D01*
Y1125000D01*
X532941D01*
Y1112500D01*
X535477Y1106377D01*
X541600Y1103841D01*
X557600D01*
X563723Y1106377D01*
X564245Y1107637D01*
X575000Y1103182D01*
X587246Y1108254D01*
X596639Y1110037D01*
X598964Y1109687D01*
X599130Y1109618D01*
Y1125000D01*
X601670D01*
Y1109618D01*
D02*
G37*
G36*
X1225800Y477589D02*
X1236977Y482219D01*
X1241250Y473850D01*
X1244497Y470604D01*
X1240670Y461365D01*
X1170503D01*
X1166677Y470604D01*
X1174053Y477981D01*
X1175000Y477589D01*
X1179538Y479468D01*
X1187700Y481786D01*
X1195862Y479468D01*
X1200400Y477589D01*
X1211577Y482219D01*
X1214622Y482219D01*
X1225800Y477589D01*
D02*
G37*
G36*
X1440000Y1345000D02*
Y1165000D01*
X1430000Y1155000D01*
X1235000D01*
X1220000Y1170000D01*
X1174363D01*
X1168808Y1178315D01*
X1175719Y1195000D01*
X1165257Y1220257D01*
X1140000Y1230719D01*
X1114743Y1220257D01*
X1104281Y1195000D01*
X1114743Y1169743D01*
X1127633Y1164404D01*
X1131094Y1152146D01*
X1129537Y1150000D01*
X850000D01*
Y1185000D01*
X840000Y1195000D01*
X750719D01*
X740257Y1220257D01*
X715000Y1230719D01*
X689743Y1220257D01*
X679281Y1195000D01*
X689743Y1169743D01*
X695369Y1167412D01*
X696575Y1156089D01*
X695348Y1155241D01*
X694315Y1155000D01*
X395000D01*
X365000Y1185000D01*
X365000Y1310000D01*
X405000Y1350000D01*
X1435000D01*
X1440000Y1345000D01*
D02*
G37*
G36*
X1455554Y259239D02*
X1451728Y250000D01*
X1390619D01*
X1386792Y259239D01*
X1421173Y293620D01*
X1455554Y259239D01*
D02*
G37*
%LPC*%
G36*
X1876270Y1265753D02*
Y1251270D01*
X1890753D01*
X1886511Y1261511D01*
X1876270Y1265753D01*
D02*
G37*
G36*
X998730Y1449283D02*
X978922Y1441078D01*
X970717Y1421270D01*
X998730D01*
Y1449283D01*
D02*
G37*
G36*
X1273730D02*
X1253922Y1441078D01*
X1245717Y1421270D01*
X1273730D01*
Y1449283D01*
D02*
G37*
G36*
X448730D02*
X428922Y1441078D01*
X420717Y1421270D01*
X448730D01*
Y1449283D01*
D02*
G37*
G36*
X723730D02*
X703922Y1441078D01*
X695717Y1421270D01*
X723730D01*
Y1449283D01*
D02*
G37*
G36*
X1001270D02*
Y1421270D01*
X1029283D01*
X1021078Y1441078D01*
X1001270Y1449283D01*
D02*
G37*
G36*
X1276270D02*
Y1421270D01*
X1304283D01*
X1296078Y1441078D01*
X1276270Y1449283D01*
D02*
G37*
G36*
X451270D02*
Y1421270D01*
X479283D01*
X471078Y1441078D01*
X451270Y1449283D01*
D02*
G37*
G36*
X726270D02*
Y1421270D01*
X754283D01*
X746078Y1441078D01*
X726270Y1449283D01*
D02*
G37*
G36*
X1304283Y1418730D02*
X1276270D01*
Y1390717D01*
X1296078Y1398922D01*
X1304283Y1418730D01*
D02*
G37*
G36*
X998730D02*
X970717D01*
X978922Y1398922D01*
X998730Y1390717D01*
Y1418730D01*
D02*
G37*
G36*
X723730D02*
X695717D01*
X703922Y1398922D01*
X723730Y1390717D01*
Y1418730D01*
D02*
G37*
G36*
X448730D02*
X420717D01*
X428922Y1398922D01*
X448730Y1390717D01*
Y1418730D01*
D02*
G37*
G36*
X754283D02*
X726270D01*
Y1390717D01*
X746078Y1398922D01*
X754283Y1418730D01*
D02*
G37*
G36*
X1029283D02*
X1001270D01*
Y1390717D01*
X1021078Y1398922D01*
X1029283Y1418730D01*
D02*
G37*
G36*
X1273730D02*
X1245717D01*
X1253922Y1398922D01*
X1273730Y1390717D01*
Y1418730D01*
D02*
G37*
G36*
X479283D02*
X451270D01*
Y1390717D01*
X471078Y1398922D01*
X479283Y1418730D01*
D02*
G37*
G36*
X1373730Y498730D02*
X1363001D01*
Y490750D01*
X1363806Y488806D01*
X1365750Y488001D01*
X1373730D01*
Y498730D01*
D02*
G37*
G36*
X1614047Y523730D02*
X1602270D01*
Y511953D01*
X1610598Y515402D01*
X1614047Y523730D01*
D02*
G37*
G36*
X1599730Y538047D02*
X1591402Y534598D01*
X1587953Y526270D01*
X1599730D01*
Y538047D01*
D02*
G37*
G36*
X505000Y586236D02*
X493520Y581481D01*
X488764Y570000D01*
X490238Y566442D01*
X492320Y556480D01*
X487564Y545000D01*
X492320Y533519D01*
X503800Y528764D01*
X515281Y533519D01*
X520036Y545000D01*
X518562Y548558D01*
X516481Y558520D01*
X521236Y570000D01*
X516481Y581481D01*
X505000Y586236D01*
D02*
G37*
G36*
X1602270Y538047D02*
Y526270D01*
X1614047D01*
X1610598Y534598D01*
X1602270Y538047D01*
D02*
G37*
G36*
X1384250Y511999D02*
X1376270D01*
Y501270D01*
X1386999D01*
Y509250D01*
X1386194Y511194D01*
X1384250Y511999D01*
D02*
G37*
G36*
X326270Y509529D02*
Y501270D01*
X334529D01*
X332110Y507110D01*
X326270Y509529D01*
D02*
G37*
G36*
X323730D02*
X317890Y507110D01*
X315471Y501270D01*
X323730D01*
Y509529D01*
D02*
G37*
G36*
X1373730Y511999D02*
X1365750D01*
X1363806Y511194D01*
X1363001Y509250D01*
Y501270D01*
X1373730D01*
Y511999D01*
D02*
G37*
G36*
X1599730Y523730D02*
X1587953D01*
X1591402Y515402D01*
X1599730Y511953D01*
Y523730D01*
D02*
G37*
G36*
X323730Y498730D02*
X315471D01*
X317890Y492890D01*
X323730Y490471D01*
Y498730D01*
D02*
G37*
G36*
X334529D02*
X326270D01*
Y490471D01*
X332110Y492890D01*
X334529Y498730D01*
D02*
G37*
G36*
X523730Y623730D02*
X515471D01*
X517890Y617890D01*
X523730Y615471D01*
Y623730D01*
D02*
G37*
G36*
X534530D02*
X526270D01*
Y615471D01*
X532110Y617890D01*
X534530Y623730D01*
D02*
G37*
G36*
X610471Y623730D02*
X601270D01*
Y614529D01*
X607776Y617224D01*
X610471Y623730D01*
D02*
G37*
G36*
X1408600Y623730D02*
X1400070D01*
Y615200D01*
X1406101Y617698D01*
X1408323Y623063D01*
X1408600Y623730D01*
D02*
G37*
G36*
X1948730Y638730D02*
X1926129D01*
X1932749Y622749D01*
X1948730Y616129D01*
Y638730D01*
D02*
G37*
G36*
X1029529Y628730D02*
X1021270D01*
Y620471D01*
X1027110Y622890D01*
X1029529Y628730D01*
D02*
G37*
G36*
X1074529Y628730D02*
X1066270D01*
Y620471D01*
X1072110Y622890D01*
X1074529Y628730D01*
D02*
G37*
G36*
X1625000Y656777D02*
X1613137Y651863D01*
X1608223Y640000D01*
Y635000D01*
X1613137Y623137D01*
X1625000Y618223D01*
X1636863Y623137D01*
X1641777Y635000D01*
Y640000D01*
X1636863Y651863D01*
X1625000Y656777D01*
D02*
G37*
G36*
X1063730Y628730D02*
X1055471D01*
X1057890Y622890D01*
X1063730Y620471D01*
Y628730D01*
D02*
G37*
G36*
X323730Y559529D02*
X317890Y557110D01*
X315471Y551270D01*
X323730D01*
Y559529D01*
D02*
G37*
G36*
X1098730Y559529D02*
X1092889Y557110D01*
X1092008Y554982D01*
X1090471Y551270D01*
X1098730D01*
Y559529D01*
D02*
G37*
G36*
X323730Y548730D02*
X315471D01*
X317890Y542890D01*
X323730Y540471D01*
Y548730D01*
D02*
G37*
G36*
X334529D02*
X326270D01*
Y540471D01*
X332110Y542890D01*
X334529Y548730D01*
D02*
G37*
G36*
X326270Y559529D02*
Y551270D01*
X334529D01*
X332110Y557110D01*
X326270Y559529D01*
D02*
G37*
G36*
X1299930Y598730D02*
X1291400D01*
X1293898Y592698D01*
X1299263Y590476D01*
X1299930Y590200D01*
Y598730D01*
D02*
G37*
G36*
X598730Y623730D02*
X589529D01*
X592224Y617224D01*
X598730Y614529D01*
Y623730D01*
D02*
G37*
G36*
X579930Y579800D02*
X579263Y579524D01*
X573899Y577302D01*
X571677Y571937D01*
X571400Y571270D01*
X579930D01*
Y579800D01*
D02*
G37*
G36*
X1311000Y598730D02*
X1302470D01*
Y590200D01*
X1308501Y592698D01*
X1311000Y598730D01*
D02*
G37*
G36*
X1599730Y309529D02*
X1593890Y307110D01*
X1591471Y301270D01*
X1599730D01*
Y309529D01*
D02*
G37*
G36*
X1048730D02*
X1042890Y307110D01*
X1040471Y301270D01*
X1048730D01*
Y309529D01*
D02*
G37*
G36*
X861000Y373730D02*
X851200D01*
X841400D01*
X841482Y373532D01*
X838519Y361480D01*
X833764Y350000D01*
X838519Y338519D01*
X838519Y336481D01*
X833764Y325000D01*
X838519Y313520D01*
X841482Y301468D01*
X841400Y301270D01*
X851200D01*
X861000D01*
X860566Y302317D01*
X861480Y313520D01*
X866236Y325000D01*
X861480Y336481D01*
X861480Y338519D01*
X866236Y350000D01*
X861480Y361480D01*
X860566Y372683D01*
X861000Y373730D01*
D02*
G37*
G36*
X673730Y309529D02*
X667890Y307110D01*
X665471Y301270D01*
X673730D01*
Y309529D01*
D02*
G37*
G36*
X1602270D02*
Y301270D01*
X1610529D01*
X1608110Y307110D01*
X1602270Y309529D01*
D02*
G37*
G36*
X775000Y391777D02*
X763137Y386863D01*
X758223Y375000D01*
Y366777D01*
X725000D01*
X721697Y365409D01*
X718250D01*
X712127Y362873D01*
X709591Y356750D01*
Y353302D01*
X708223Y350000D01*
X709591Y346697D01*
Y343250D01*
X712127Y337127D01*
X718250Y334591D01*
X721697D01*
X725000Y333223D01*
X751528D01*
X757023Y325000D01*
X757408Y324071D01*
X753188Y314071D01*
X734980D01*
X731750Y315409D01*
X718250D01*
X712127Y312873D01*
X709591Y306750D01*
Y293250D01*
X712127Y287127D01*
X718250Y284591D01*
X731750D01*
X734980Y285929D01*
X768467D01*
X775000Y283223D01*
X786863Y288137D01*
X791777Y300000D01*
Y323800D01*
X791777Y323800D01*
X789100Y330263D01*
X787316Y337500D01*
X789100Y344737D01*
X791777Y351200D01*
X791777Y351200D01*
Y375000D01*
X786863Y386863D01*
X775000Y391777D01*
D02*
G37*
G36*
X684529Y348730D02*
X676270D01*
Y340470D01*
X677128Y340826D01*
X682110Y342890D01*
X684529Y348730D01*
D02*
G37*
G36*
X676270Y309529D02*
Y301270D01*
X684529D01*
X682110Y307110D01*
X676270Y309529D01*
D02*
G37*
G36*
X560000Y370695D02*
X548902Y366098D01*
X544305Y355000D01*
X545929Y351080D01*
Y334980D01*
X544591Y331750D01*
Y318250D01*
X547127Y312127D01*
X553250Y309591D01*
X566750D01*
X572873Y312127D01*
X575409Y318250D01*
Y331750D01*
X574071Y334980D01*
Y351080D01*
X575695Y355000D01*
X571098Y366098D01*
X560000Y370695D01*
D02*
G37*
G36*
X1610529Y298730D02*
X1602270D01*
Y290471D01*
X1608110Y292890D01*
X1610529Y298730D01*
D02*
G37*
G36*
X1176270Y294529D02*
Y286270D01*
X1184529D01*
X1182110Y292110D01*
X1179982Y292992D01*
X1176270Y294529D01*
D02*
G37*
G36*
X1248730Y298730D02*
X1239133D01*
Y297500D01*
X1242316Y289816D01*
X1248730Y287159D01*
Y298730D01*
D02*
G37*
G36*
X1276200Y366777D02*
X1264337Y361863D01*
X1259423Y350000D01*
Y320288D01*
X1250000Y313367D01*
X1242316Y310184D01*
X1239133Y302500D01*
Y301270D01*
X1250000D01*
Y300000D01*
X1251270D01*
Y287159D01*
X1257684Y289816D01*
X1262800Y286450D01*
X1263137Y285637D01*
X1275000Y280723D01*
X1286863Y285637D01*
X1296288Y282260D01*
X1300000Y280723D01*
X1311863Y285637D01*
X1313631Y289905D01*
X1331949Y308223D01*
X1360000D01*
X1371863Y313137D01*
X1376777Y325000D01*
X1371863Y336863D01*
X1360000Y341777D01*
X1325000D01*
X1313137Y336863D01*
X1302216Y325943D01*
X1292977Y329770D01*
Y350000D01*
X1288063Y361863D01*
X1276200Y366777D01*
D02*
G37*
G36*
X1173730Y294529D02*
X1170018Y292992D01*
X1167890Y292110D01*
X1165471Y286270D01*
X1173730D01*
Y294529D01*
D02*
G37*
G36*
X849930Y298730D02*
X841400D01*
X843899Y292698D01*
X849930Y290200D01*
Y298730D01*
D02*
G37*
G36*
X673730D02*
X665471D01*
X667890Y292890D01*
X673730Y290471D01*
Y298730D01*
D02*
G37*
G36*
X684529D02*
X676270D01*
Y290471D01*
X682110Y292890D01*
X684529Y298730D01*
D02*
G37*
G36*
X861000D02*
X852470D01*
Y290200D01*
X858502Y292698D01*
X861000Y298730D01*
D02*
G37*
G36*
X1599730D02*
X1591471D01*
X1593890Y292890D01*
X1599730Y290471D01*
Y298730D01*
D02*
G37*
G36*
X334529Y448730D02*
X326270D01*
Y440471D01*
X332110Y442890D01*
X334529Y448730D01*
D02*
G37*
G36*
X1610529D02*
X1602270D01*
Y440471D01*
X1608110Y442890D01*
X1610529Y448730D01*
D02*
G37*
G36*
X1599730D02*
X1591471D01*
X1593890Y442890D01*
X1599730Y440471D01*
Y448730D01*
D02*
G37*
G36*
X323730D02*
X315471D01*
X317890Y442890D01*
X323730Y440471D01*
Y448730D01*
D02*
G37*
G36*
Y459529D02*
X317890Y457110D01*
X315471Y451270D01*
X323730D01*
Y459529D01*
D02*
G37*
G36*
X326270D02*
Y451270D01*
X334529D01*
X332110Y457110D01*
X326270Y459529D01*
D02*
G37*
G36*
X1602270D02*
Y451270D01*
X1610529D01*
X1608110Y457110D01*
X1602270Y459529D01*
D02*
G37*
G36*
X1599730D02*
X1593890Y457110D01*
X1591471Y451270D01*
X1599730D01*
Y459529D01*
D02*
G37*
G36*
X1325070Y459800D02*
Y451270D01*
X1333600D01*
X1331102Y457302D01*
X1325737Y459524D01*
X1325070Y459800D01*
D02*
G37*
G36*
X1602270Y409530D02*
Y401270D01*
X1610529D01*
X1608110Y407110D01*
X1602270Y409530D01*
D02*
G37*
G36*
X1599730Y359529D02*
X1593890Y357110D01*
X1591471Y351270D01*
X1599730D01*
Y359529D01*
D02*
G37*
G36*
X1602270D02*
Y351270D01*
X1610529D01*
X1608110Y357110D01*
X1602270Y359529D01*
D02*
G37*
G36*
X1599730Y348730D02*
X1591471D01*
X1593890Y342890D01*
X1599730Y340470D01*
Y348730D01*
D02*
G37*
G36*
X1610529D02*
X1602270D01*
Y340470D01*
X1608110Y342890D01*
X1610529Y348730D01*
D02*
G37*
G36*
X849930Y384800D02*
X843899Y382302D01*
X841677Y376937D01*
X841400Y376270D01*
X849930D01*
Y384800D01*
D02*
G37*
G36*
X1610529Y398730D02*
X1602270D01*
Y390471D01*
X1608110Y392890D01*
X1610529Y398730D01*
D02*
G37*
G36*
X1599730Y409530D02*
X1593890Y407110D01*
X1591471Y401270D01*
X1599730D01*
Y409530D01*
D02*
G37*
G36*
X852470Y384800D02*
Y376270D01*
X861000D01*
X858502Y382302D01*
X852470Y384800D01*
D02*
G37*
G36*
X1599730Y398730D02*
X1591471D01*
X1593890Y392890D01*
X1599730Y390471D01*
Y398730D01*
D02*
G37*
G36*
X448000Y693283D02*
X434224Y687577D01*
X433582Y686028D01*
X422600Y690577D01*
X410737Y685663D01*
X405823Y673800D01*
X410737Y661937D01*
X422600Y657023D01*
X428517Y653069D01*
Y652000D01*
X434224Y638223D01*
X461223Y611223D01*
X475000Y605517D01*
X488776Y611223D01*
X494483Y625000D01*
X488776Y638777D01*
X481342Y646211D01*
X483261Y656774D01*
X490787Y660342D01*
X498800Y657023D01*
X510663Y661937D01*
X512337Y661937D01*
X524200Y657023D01*
X536063Y661937D01*
X536328Y662575D01*
X541916Y666116D01*
X548330Y663459D01*
Y673800D01*
Y684141D01*
X541916Y681484D01*
X536328Y685025D01*
X536063Y685663D01*
X524200Y690577D01*
X512337Y685663D01*
X510663Y685663D01*
X498800Y690577D01*
X486937Y685663D01*
X485263Y685663D01*
X473400Y690577D01*
X462418Y686028D01*
X461777Y687577D01*
X448000Y693283D01*
D02*
G37*
G36*
X1625000Y706777D02*
X1613137Y701863D01*
X1608223Y690000D01*
Y685000D01*
X1613137Y673137D01*
X1625000Y668223D01*
X1636863Y673137D01*
X1641777Y685000D01*
Y690000D01*
X1636863Y701863D01*
X1625000Y706777D01*
D02*
G37*
G36*
X1425400Y690577D02*
X1413537Y685663D01*
X1404034Y682997D01*
X1401270Y684141D01*
Y673800D01*
Y663459D01*
X1404034Y664604D01*
X1413537Y661937D01*
X1425400Y657023D01*
X1437263Y661937D01*
X1442177Y673800D01*
X1437263Y685663D01*
X1425400Y690577D01*
D02*
G37*
G36*
X1948730Y663871D02*
X1932749Y657252D01*
X1926129Y641270D01*
X1948730D01*
Y663871D01*
D02*
G37*
G36*
X601270Y635471D02*
Y626270D01*
X610471D01*
X607776Y632776D01*
X601270Y635471D01*
D02*
G37*
G36*
X523730Y634529D02*
X517890Y632110D01*
X515471Y626270D01*
X523730D01*
Y634529D01*
D02*
G37*
G36*
X1773730Y636230D02*
X1764133D01*
Y635000D01*
X1767316Y627316D01*
X1773730Y624659D01*
Y636230D01*
D02*
G37*
G36*
X598730Y635471D02*
X592224Y632776D01*
X589529Y626270D01*
X598730D01*
Y635471D01*
D02*
G37*
G36*
X1063730Y639530D02*
X1057890Y637111D01*
X1055471Y631270D01*
X1063730D01*
Y639530D01*
D02*
G37*
G36*
X1066270Y639530D02*
Y631270D01*
X1074529D01*
X1072110Y637111D01*
X1066270Y639530D01*
D02*
G37*
G36*
X526270Y634529D02*
Y626270D01*
X534530D01*
X532110Y632110D01*
X526270Y634529D01*
D02*
G37*
G36*
X1400070Y634800D02*
Y626270D01*
X1408600D01*
X1406102Y632302D01*
X1400070Y634800D01*
D02*
G37*
G36*
X1348730Y1048730D02*
X1317251D01*
Y1020000D01*
X1318056Y1018056D01*
X1320000Y1017251D01*
X1348730D01*
Y1048730D01*
D02*
G37*
G36*
X1423730Y1059499D02*
X1418250D01*
X1416306Y1058694D01*
X1415501Y1056750D01*
Y1051270D01*
X1423730D01*
Y1059499D01*
D02*
G37*
G36*
X1431750D02*
X1426270D01*
Y1051270D01*
X1434499D01*
Y1056750D01*
X1433694Y1058694D01*
X1431750Y1059499D01*
D02*
G37*
G36*
X1348730Y1082749D02*
X1320000D01*
X1318056Y1081944D01*
X1317251Y1080000D01*
Y1051270D01*
X1348730D01*
Y1082749D01*
D02*
G37*
G36*
X1380000D02*
X1351270D01*
Y1051270D01*
X1382749D01*
Y1080000D01*
X1381944Y1081944D01*
X1380000Y1082749D01*
D02*
G37*
G36*
X1776270Y870341D02*
Y851270D01*
X1785867D01*
Y860000D01*
X1782685Y867684D01*
X1776270Y870341D01*
D02*
G37*
G36*
X1490249Y1248730D02*
X1476270D01*
Y1234751D01*
X1487500D01*
X1489444Y1235556D01*
X1490249Y1237500D01*
Y1248730D01*
D02*
G37*
G36*
X1487500Y1265249D02*
X1476270D01*
Y1251270D01*
X1490249D01*
Y1262500D01*
X1489444Y1264444D01*
X1487500Y1265249D01*
D02*
G37*
G36*
X1036409Y1123730D02*
X1026270D01*
Y1109618D01*
X1033067Y1112433D01*
X1033553Y1113605D01*
X1036409Y1120500D01*
Y1123730D01*
D02*
G37*
G36*
X923730Y1048730D02*
X892251D01*
Y1020000D01*
X893056Y1018056D01*
X895000Y1017251D01*
X923730D01*
Y1048730D01*
D02*
G37*
G36*
X998730Y1059499D02*
X993250D01*
X991306Y1058694D01*
X990501Y1056750D01*
Y1051270D01*
X998730D01*
Y1059499D01*
D02*
G37*
G36*
X1006750D02*
X1001270D01*
Y1051270D01*
X1009499D01*
Y1056750D01*
X1008694Y1058694D01*
X1006750Y1059499D01*
D02*
G37*
G36*
X923730Y1082749D02*
X895000D01*
X893056Y1081944D01*
X892251Y1080000D01*
Y1051270D01*
X923730D01*
Y1082749D01*
D02*
G37*
G36*
X955000D02*
X926270D01*
Y1051270D01*
X957749D01*
Y1080000D01*
X956944Y1081944D01*
X955000Y1082749D01*
D02*
G37*
G36*
X998730Y1048730D02*
X990501D01*
Y1043250D01*
X991306Y1041306D01*
X993250Y1040501D01*
X998730D01*
Y1048730D01*
D02*
G37*
G36*
X957749D02*
X926270D01*
Y1017251D01*
X955000D01*
X956944Y1018056D01*
X957749Y1020000D01*
Y1048730D01*
D02*
G37*
G36*
X1009499D02*
X1001270D01*
Y1040501D01*
X1006750D01*
X1008694Y1041306D01*
X1009499Y1043250D01*
Y1048730D01*
D02*
G37*
G36*
X498730D02*
X467251D01*
Y1020000D01*
X468056Y1018056D01*
X470000Y1017251D01*
X498730D01*
Y1048730D01*
D02*
G37*
G36*
X532749D02*
X501270D01*
Y1017251D01*
X530000D01*
X531944Y1018056D01*
X532749Y1020000D01*
Y1048730D01*
D02*
G37*
G36*
X399600Y996818D02*
X387354Y991746D01*
X382282Y979500D01*
Y970500D01*
X387354Y958254D01*
X399600Y953182D01*
X411846Y958254D01*
X423307Y959793D01*
X423730Y959617D01*
Y975000D01*
Y990382D01*
X423307Y990207D01*
X411846Y991746D01*
X399600Y996818D01*
D02*
G37*
G36*
X581750Y1059499D02*
X576270D01*
Y1051270D01*
X584499D01*
Y1056750D01*
X583694Y1058694D01*
X581750Y1059499D01*
D02*
G37*
G36*
X584499Y1048730D02*
X576270D01*
Y1040501D01*
X581750D01*
X583694Y1041306D01*
X584499Y1043250D01*
Y1048730D01*
D02*
G37*
G36*
X573730D02*
X565501D01*
Y1043250D01*
X566306Y1041306D01*
X568250Y1040501D01*
X573730D01*
Y1048730D01*
D02*
G37*
G36*
X530000Y1082749D02*
X501270D01*
Y1051270D01*
X532749D01*
Y1080000D01*
X531944Y1081944D01*
X530000Y1082749D01*
D02*
G37*
G36*
X573730Y1059499D02*
X568250D01*
X566306Y1058694D01*
X565501Y1056750D01*
Y1051270D01*
X573730D01*
Y1059499D01*
D02*
G37*
G36*
X498730Y1082749D02*
X470000D01*
X468056Y1081944D01*
X467251Y1080000D01*
Y1051270D01*
X498730D01*
Y1082749D01*
D02*
G37*
G36*
X448730Y1337749D02*
X425000D01*
X423056Y1336944D01*
X422251Y1335000D01*
Y1311270D01*
X448730D01*
Y1337749D01*
D02*
G37*
G36*
X723730D02*
X700000D01*
X698056Y1336944D01*
X697251Y1335000D01*
Y1311270D01*
X723730D01*
Y1337749D01*
D02*
G37*
G36*
X1273730Y1308730D02*
X1247251D01*
Y1285000D01*
X1248056Y1283056D01*
X1250000Y1282251D01*
X1273730D01*
Y1308730D01*
D02*
G37*
G36*
X1302749D02*
X1276270D01*
Y1282251D01*
X1300000D01*
X1301944Y1283056D01*
X1302749Y1285000D01*
Y1308730D01*
D02*
G37*
G36*
X475000Y1337749D02*
X451270D01*
Y1311270D01*
X477749D01*
Y1335000D01*
X476944Y1336944D01*
X475000Y1337749D01*
D02*
G37*
G36*
X750000D02*
X726270D01*
Y1311270D01*
X752749D01*
Y1335000D01*
X751944Y1336944D01*
X750000Y1337749D01*
D02*
G37*
G36*
X998730D02*
X975000D01*
X973056Y1336944D01*
X972251Y1335000D01*
Y1311270D01*
X998730D01*
Y1337749D01*
D02*
G37*
G36*
X1273730D02*
X1250000D01*
X1248056Y1336944D01*
X1247251Y1335000D01*
Y1311270D01*
X1273730D01*
Y1337749D01*
D02*
G37*
G36*
X1027749Y1308730D02*
X1001270D01*
Y1282251D01*
X1025000D01*
X1026944Y1283056D01*
X1027749Y1285000D01*
Y1308730D01*
D02*
G37*
G36*
X448730D02*
X422251D01*
Y1285000D01*
X423056Y1283056D01*
X425000Y1282251D01*
X448730D01*
Y1308730D01*
D02*
G37*
G36*
X752749D02*
X726270D01*
Y1282251D01*
X750000D01*
X751944Y1283056D01*
X752749Y1285000D01*
Y1308730D01*
D02*
G37*
G36*
X998730D02*
X972251D01*
Y1285000D01*
X973056Y1283056D01*
X975000Y1282251D01*
X998730D01*
Y1308730D01*
D02*
G37*
G36*
X477749D02*
X451270D01*
Y1282251D01*
X475000D01*
X476944Y1283056D01*
X477749Y1285000D01*
Y1308730D01*
D02*
G37*
G36*
X723730D02*
X697251D01*
Y1285000D01*
X698056Y1283056D01*
X700000Y1282251D01*
X723730D01*
Y1308730D01*
D02*
G37*
G36*
X1025000Y1337749D02*
X1001270D01*
Y1311270D01*
X1027749D01*
Y1335000D01*
X1026944Y1336944D01*
X1025000Y1337749D01*
D02*
G37*
G36*
X1300000D02*
X1276270D01*
Y1311270D01*
X1302749D01*
Y1335000D01*
X1301944Y1336944D01*
X1300000Y1337749D01*
D02*
G37*
%LPD*%
D12*
X325000Y1150000D02*
X375000D01*
X275000Y1100000D02*
X325000Y1150000D01*
X1640000Y915000D02*
Y924100D01*
X1680900Y965000D01*
X1700000Y915000D02*
Y925000D01*
Y745000D02*
Y915000D01*
X1665000D02*
X1700000D01*
X1193000Y853000D02*
X1195000Y855000D01*
Y905000D01*
X1175000Y851200D02*
X1176800Y853000D01*
X1135000Y965000D02*
X1195000Y905000D01*
X765000Y860000D02*
Y890000D01*
X756200Y851200D02*
X765000Y860000D01*
X750000Y851200D02*
X756200D01*
X700000Y955000D02*
X765000Y890000D01*
X1420000Y915000D02*
X1450000Y885000D01*
X1360800Y915000D02*
X1420000D01*
X1300800Y975000D02*
X1360800Y915000D01*
X925000Y995000D02*
Y1050000D01*
Y995000D02*
X975000Y945000D01*
X1000000D01*
X1000400Y945400D01*
Y975000D01*
X500000Y965000D02*
X520000Y945000D01*
X565000D01*
X575000Y955000D01*
Y975000D02*
X575000Y975000D01*
X1251200Y390000D02*
X1251200Y390000D01*
X1251200Y390000D02*
Y423800D01*
X1225800Y390000D02*
X1225800Y390000D01*
X1225800Y390000D02*
Y423800D01*
X1200400Y390000D02*
X1200400Y390000D01*
X1200400Y390000D02*
Y423800D01*
X1175000D02*
X1175000Y423800D01*
Y390000D02*
Y423800D01*
X1199960Y350040D02*
X1200000Y350000D01*
X1164960Y350040D02*
X1199960D01*
X1149600Y365400D02*
X1164960Y350040D01*
X1149600Y365400D02*
Y423800D01*
X1100000Y320000D02*
X1110000Y310000D01*
X1100000Y320000D02*
Y370000D01*
X900000Y385000D02*
X935000D01*
X890000Y375000D02*
X900000Y385000D01*
X890000Y340000D02*
Y375000D01*
X905000Y325000D02*
X1015000D01*
X890000Y340000D02*
X905000Y325000D01*
X946400Y396400D02*
Y423800D01*
X935000Y385000D02*
X946400Y396400D01*
X745000Y1125000D02*
X824200D01*
X720000Y1100000D02*
X745000Y1125000D01*
X720000Y970000D02*
Y1100000D01*
X800000Y851200D02*
Y890000D01*
X720000Y970000D02*
X800000Y890000D01*
X1685000Y730000D02*
X1700000Y745000D01*
Y925000D02*
Y965000D01*
X1700000Y925000D02*
X1700000Y925000D01*
X1685000Y727500D02*
Y730000D01*
Y727500D02*
X1685000Y727500D01*
X1750000Y800000D02*
X1785000Y765000D01*
X1750000Y800000D02*
Y985000D01*
X1785000Y765000D02*
X1905000D01*
X524200Y750000D02*
X525000Y750800D01*
X1075775Y299976D02*
X1075800Y300800D01*
X1075775Y299976D02*
Y299976D01*
X975000Y650000D02*
Y675000D01*
X1124200Y423800D02*
Y429200D01*
X1251200Y483800D02*
Y500000D01*
Y483800D02*
X1310000Y425000D01*
X1323800D01*
X1323800Y425000D01*
X1400000D02*
X1450000D01*
X1400000Y450000D02*
X1450000D01*
X1450800Y944200D02*
Y975000D01*
Y944200D02*
X1500000Y895000D01*
Y851200D02*
Y895000D01*
X1450000Y851200D02*
Y885000D01*
Y851200D02*
X1473200D01*
X1475000Y853000D01*
X1500000Y851200D02*
X1523200D01*
X1525000Y853000D01*
X1450000Y774600D02*
Y775000D01*
X1374600Y799600D02*
X1375000Y800000D01*
X1225000Y851200D02*
Y905000D01*
X1155000Y975000D02*
X1225000Y905000D01*
X1155000Y975000D02*
Y1100000D01*
X1180000Y1125000D01*
X1249200D01*
X1003800Y830000D02*
X1025000Y851200D01*
X985000Y830000D02*
X1003800D01*
X975000Y840000D02*
X985000Y830000D01*
X975000Y840000D02*
Y910000D01*
X910000Y975000D02*
X975000Y910000D01*
X875800Y975000D02*
X910000D01*
X1075000Y851200D02*
Y925799D01*
X1025800Y975000D02*
X1075000Y925799D01*
X600000Y851200D02*
Y885000D01*
X560000Y925000D02*
X600000Y885000D01*
X500400Y925000D02*
X560000D01*
X450400Y975000D02*
X500400Y925000D01*
X650000Y851200D02*
Y880000D01*
X600400Y929600D02*
X650000Y880000D01*
X600400Y929600D02*
Y975000D01*
X375000Y851200D02*
Y905000D01*
X300000Y980000D02*
X375000Y905000D01*
X300000Y980000D02*
Y1085000D01*
X725000Y300000D02*
X775000D01*
X830000Y375000D02*
X851200D01*
X873400Y651600D02*
X900000Y625000D01*
X950000D02*
X975000Y650000D01*
X1073400Y523400D02*
X1100000Y550000D01*
X1073400Y500000D02*
Y523400D01*
X1125000Y550000D02*
X1125000Y550000D01*
X1125000Y540000D02*
Y550000D01*
X1098800Y513800D02*
X1125000Y540000D01*
X1098800Y500000D02*
Y513800D01*
X1125000Y580000D02*
Y600000D01*
Y580000D02*
X1149600Y555400D01*
Y500000D02*
Y555400D01*
Y423800D02*
X1150000Y423400D01*
X1050400Y350000D02*
Y360400D01*
X1098800Y408800D02*
Y423800D01*
X997200Y352400D02*
Y423800D01*
Y352400D02*
X999600Y350000D01*
X971800Y352400D02*
X974200Y350000D01*
X971800Y352400D02*
Y423800D01*
X1075800Y300800D02*
Y350000D01*
X1050000Y349599D02*
X1050400Y350000D01*
X1325000Y450000D02*
X1355000Y480000D01*
X1323800Y450000D02*
X1325000D01*
X1298400Y666600D02*
Y673800D01*
Y666600D02*
X1325000Y640000D01*
Y625000D02*
Y640000D01*
X1349200Y610800D02*
Y673800D01*
Y610800D02*
X1370000Y590000D01*
X1440000D01*
X1475000Y625000D01*
X1225400Y500400D02*
Y550000D01*
Y500400D02*
X1225800Y500000D01*
X1251200D02*
X1324200D01*
X1200400D02*
Y549600D01*
X1200000Y550000D02*
X1200400Y549600D01*
X1250000Y550800D02*
X1250800Y550000D01*
X1250000Y550800D02*
Y580000D01*
X1270000Y600000D01*
X1301200D01*
X1215000D02*
X1225000D01*
X1190000Y625000D02*
X1215000Y600000D01*
X1175000Y625000D02*
X1190000D01*
X1203800Y645000D02*
X1223800Y625000D01*
X1145000Y645000D02*
X1203800D01*
X1125000Y625000D02*
X1145000Y645000D01*
X1175000Y500000D02*
Y600000D01*
X1050000Y300000D02*
Y349599D01*
X1025000Y335000D02*
Y350000D01*
X1015000Y325000D02*
X1025000Y335000D01*
X1125000Y335000D02*
Y423000D01*
X1124200Y423800D02*
X1125000Y423000D01*
X560000Y325000D02*
Y355000D01*
X610000Y325000D02*
Y355000D01*
X1022600Y500000D02*
Y527400D01*
X1000000Y550000D02*
X1022600Y527400D01*
X1000000Y550000D02*
X1020000Y570000D01*
Y580000D01*
X1048000Y500000D02*
Y548000D01*
X1050000Y550000D01*
Y565000D01*
X1065000Y580000D01*
X1020000Y630000D02*
X1065000D01*
X1100000Y595001D01*
Y550000D02*
Y595001D01*
X325000Y851200D02*
Y915000D01*
X275000Y965000D02*
X325000Y915000D01*
X340000Y1125000D02*
X399600D01*
X300000Y1085000D02*
X340000Y1125000D01*
X275000Y965000D02*
Y1100000D01*
X700000Y955000D02*
Y1110000D01*
X765000Y1175000D01*
X805000D01*
X1680900Y965000D02*
Y985900D01*
X1695000Y1000000D01*
X1735000D01*
X1750000Y985000D01*
X1905000Y765000D02*
X1950000Y720000D01*
X1065000Y630000D02*
X1110000Y675000D01*
X1225000D01*
X1270000Y630000D01*
Y600000D02*
Y630000D01*
X1300000Y601200D02*
Y625000D01*
Y601200D02*
X1301200Y600000D01*
X1135000Y965000D02*
Y1115000D01*
X1170000Y1150000D01*
X1200000D01*
X1080000Y390000D02*
X1100000Y370000D01*
X1050400Y360400D02*
X1080000Y390000D01*
X1098800Y408800D01*
D13*
X295000Y1277540D02*
X297540Y1275000D01*
X295000Y1277540D02*
Y1340000D01*
X1650000Y1180000D02*
Y1250000D01*
X1565000Y1335000D02*
X1650000Y1250000D01*
X1400000Y1335000D02*
X1565000D01*
X450000Y1310000D02*
X725000D01*
X1000000D01*
X1275000D01*
X1375000D01*
X1400000Y1335000D01*
X1000000Y1420000D02*
X1275000D01*
X725000D02*
X1000000D01*
X450000D02*
X725000D01*
X295000Y1340000D02*
X375000Y1420000D01*
X450000D01*
X1750000Y1180000D02*
X1900000D01*
D14*
X1775000Y825000D02*
X1875000D01*
X756200Y851200D02*
X773200D01*
X1350000Y1050000D02*
X1390000Y1090000D01*
X1445000D01*
X1450000Y1095000D01*
Y1125000D01*
X1305000Y1095000D02*
X1350000Y1050000D01*
X1305000Y1095000D02*
Y1120000D01*
X1300000Y1125000D02*
X1305000Y1120000D01*
X1325000Y1025000D02*
X1350000Y1050000D01*
X1285800Y1025000D02*
X1325000D01*
X1275400Y1014600D02*
X1285800Y1025000D01*
X1275400Y975000D02*
Y1014600D01*
X1482000Y1015000D02*
X1500000Y997000D01*
X1415000Y1015000D02*
X1482000D01*
X1400000Y1000000D02*
X1415000Y1015000D01*
X880000Y1095000D02*
X925000Y1050000D01*
X880000Y1095000D02*
Y1120000D01*
X875000Y1125000D02*
X880000Y1120000D01*
X1025000Y1070000D02*
Y1125000D01*
X1005000Y1050000D02*
X1025000Y1070000D01*
X890000Y1050000D02*
X925000D01*
X850400Y1010400D02*
X890000Y1050000D01*
X850400Y975000D02*
Y1010400D01*
X500000Y965000D02*
Y1050000D01*
X455000D02*
X465000D01*
X500000D01*
X425000Y1010000D02*
X465000Y1050000D01*
X425000Y975000D02*
Y1010000D01*
X450400Y1054600D02*
X455000Y1050000D01*
X450400Y1054600D02*
Y1125000D01*
X575000Y1050000D02*
Y1055000D01*
X600400Y1080400D01*
Y1125000D01*
X1385000Y1440000D02*
X1415000Y1470000D01*
X1295000Y1440000D02*
X1385000D01*
X1275000Y1420000D02*
X1295000Y1440000D01*
X1062500Y262500D02*
X1075000Y275000D01*
X1050000Y250000D02*
X1062500Y262500D01*
X1132500D02*
X1145000Y250000D01*
X1062500Y262500D02*
X1132500D01*
X1125000Y270000D02*
Y285000D01*
X1350000Y250000D02*
X1425000Y325000D01*
X1145000Y250000D02*
X1350000D01*
X1125000Y285000D02*
X1125000Y285000D01*
X425000Y1125000D02*
Y1285000D01*
X1685000Y730000D02*
X1860000D01*
X1685000Y727500D02*
Y730000D01*
X1575000D02*
X1685000D01*
X1775000Y687500D02*
X1885000Y577500D01*
X524200Y735800D02*
X545000Y715000D01*
X934200D01*
X949600Y730400D01*
X1075000Y275000D02*
Y300000D01*
Y275000D02*
Y275000D01*
X498800Y250000D02*
X1050000D01*
X450000Y298800D02*
X498800Y250000D01*
X425000Y1050000D02*
Y1125000D01*
X1875000Y1250000D02*
Y1325000D01*
X1730000Y1470000D02*
X1875000Y1325000D01*
X1415000Y1470000D02*
X1730000D01*
X1685000Y727500D02*
X1775000Y637500D01*
X575000Y1125000D02*
Y1185000D01*
X450000Y1310000D02*
X575000Y1185000D01*
X425000Y1285000D02*
X450000Y1310000D01*
X849600Y1125000D02*
Y1185400D01*
X725000Y1310000D02*
X849600Y1185400D01*
X999600Y1125000D02*
Y1309600D01*
X1000000Y1310000D01*
X1274600Y1125000D02*
Y1309600D01*
X1275000Y1310000D01*
X1424600Y1125000D02*
Y1160400D01*
X1275000Y1310000D02*
X1424600Y1160400D01*
X1175000Y1075000D02*
X1200000D01*
X1275000Y1050000D02*
Y1124600D01*
X1274600Y1125000D02*
X1275000Y1124600D01*
X1475000Y1050000D02*
X1500000Y1075000D01*
X1525000D01*
X1400000Y975000D02*
Y1000000D01*
X1500000Y997000D02*
X1512000Y985000D01*
X1525000D01*
X1500000Y775000D02*
X1525000D01*
X1475000D02*
X1500000D01*
X1450000D02*
X1475000D01*
X1425400Y750000D02*
X1450000Y774600D01*
X1275400Y954600D02*
X1350000Y880000D01*
X1273000Y750000D02*
Y752000D01*
X1250000Y775000D02*
X1273000Y752000D01*
X1175000Y775000D02*
X1200000D01*
X1225000D01*
X1250000D01*
X1250000Y775000D01*
X1226800Y853000D02*
X1250000D01*
X1225000Y851200D02*
X1226800Y853000D01*
X1275400Y954600D02*
Y975000D01*
X1200000Y1075000D02*
Y1075000D01*
Y1075000D02*
X1225000Y1050000D01*
X1075000Y775000D02*
X1100000D01*
X1050000D02*
X1075000D01*
X1025000D02*
X1050000D01*
X1001200Y751200D02*
X1025000Y775000D01*
X1000400Y751200D02*
X1001200D01*
X1076800Y853000D02*
X1100000D01*
X1075000Y851200D02*
X1076800Y853000D01*
X1026800D02*
X1050000D01*
X1025000Y851200D02*
X1026800Y853000D01*
X975000Y775000D02*
X1000000Y800000D01*
X1075000Y1075000D02*
X1100000D01*
X1050000Y1050000D02*
X1075000Y1075000D01*
X1087000Y985000D02*
X1100000D01*
X1075000Y997000D02*
X1087000Y985000D01*
X1062000Y1010000D02*
X1075000Y997000D01*
X975000Y975000D02*
Y990000D01*
X750000Y1075000D02*
X775000D01*
X975000Y990000D02*
X995000Y1010000D01*
X1062000D01*
X850000Y1050000D02*
Y1124600D01*
X849600Y1125000D02*
X850000Y1124600D01*
X750000Y775000D02*
X775000D01*
X800000D01*
X825000D01*
Y774200D02*
Y775000D01*
Y774200D02*
X848000Y751200D01*
X875000Y850000D02*
Y890000D01*
X875000Y890000D01*
X1300000Y850000D02*
Y890000D01*
X850400Y959600D02*
Y975000D01*
Y959600D02*
X925000Y885000D01*
X773200Y851200D02*
X775000Y853000D01*
X800000Y851200D02*
X823200D01*
X825000Y853000D01*
X625000Y1050000D02*
X650000Y1075000D01*
X675000D01*
X549600Y975000D02*
Y994600D01*
X565000Y1010000D01*
X637000D01*
X650000Y997000D01*
X662000Y985000D02*
X675000D01*
X650000Y997000D02*
X662000Y985000D01*
X325000Y1075000D02*
X350000D01*
X325000Y775000D02*
X350000D01*
X375000D01*
X400000D01*
X422600Y752400D01*
Y750000D02*
Y752400D01*
X575000Y750000D02*
X600000Y775000D01*
Y775000D01*
X625000D01*
X650000D01*
X675000D01*
X650000Y851200D02*
X673200D01*
X675000Y853000D01*
X600000Y851200D02*
X623200D01*
X625000Y853000D01*
X375000Y851200D02*
X398200D01*
X400000Y853000D01*
X325000Y851200D02*
X348200D01*
X350000Y853000D01*
X425000Y955000D02*
X500000Y880000D01*
X425000Y955000D02*
Y975000D01*
X350000Y1075000D02*
X375000Y1050000D01*
X448000Y652000D02*
Y673800D01*
Y652000D02*
X475000Y625000D01*
X375000Y500000D02*
X380000Y505000D01*
X400000D01*
X425000D02*
Y535000D01*
X410000Y550000D02*
X425000Y535000D01*
X375000Y550000D02*
X410000D01*
X395000Y470000D02*
X435000D01*
X375000Y450000D02*
X395000Y470000D01*
X325000Y500000D02*
Y550000D01*
Y450000D02*
Y500000D01*
Y450000D02*
X345000Y430000D01*
X360000D01*
X375000Y415000D01*
Y400000D02*
Y415000D01*
X400400Y375400D02*
Y400000D01*
X400000Y375000D02*
X400400Y375400D01*
X425000Y400800D02*
Y428800D01*
Y400800D02*
X425800Y400000D01*
X450000Y401200D02*
Y428800D01*
Y401200D02*
X451200Y400000D01*
X425000Y399200D02*
X425800Y400000D01*
X425000Y375000D02*
Y399200D01*
X450000Y398800D02*
X451200Y400000D01*
X450000Y375000D02*
Y398800D01*
X425000Y298800D02*
X450000D01*
X400000D02*
X425000D01*
X325000Y375400D02*
X349600Y400000D01*
X325000Y350000D02*
Y375400D01*
Y350000D02*
X325000Y350000D01*
X376200Y298800D01*
X400000D01*
X375000Y350000D02*
Y400000D01*
X435000Y470000D02*
X450000Y485000D01*
Y505000D01*
X560000Y275000D02*
X610000D01*
X675000Y300000D02*
Y350000D01*
X830000Y300000D02*
X851200D01*
X815000Y315000D02*
X830000Y300000D01*
X815000Y315000D02*
Y360000D01*
X830000Y375000D01*
X525000Y625000D02*
X580000Y570000D01*
X873400Y651600D02*
Y675000D01*
X1400000Y350000D02*
Y425000D01*
Y350000D02*
X1425000Y325000D01*
X1711000Y281000D02*
X1751000Y321000D01*
Y325000D01*
X1726800Y400000D02*
X1751000Y375800D01*
X1720000Y400000D02*
X1726800D01*
X1710000Y450000D02*
X1750000Y490000D01*
Y500000D01*
X1725400Y525400D02*
X1750000D01*
X1651000Y525000D02*
X1691000Y565000D01*
X1375000Y625000D02*
X1398800D01*
Y672600D02*
X1400000Y673800D01*
X1398800Y625000D02*
Y672600D01*
X400000Y400400D02*
X400400Y400000D01*
X400000Y400400D02*
Y428800D01*
X581200Y606200D02*
X600000Y625000D01*
X581200Y570000D02*
Y606200D01*
X525000Y625000D02*
X549600Y649600D01*
Y673800D01*
X610000Y275000D02*
X650000D01*
X675000Y300000D01*
X775000Y1075000D02*
X800000Y1050000D01*
X1905400Y1024600D02*
X1950000D01*
X1875000Y994200D02*
X1905400Y1024600D01*
X1875000Y900000D02*
Y994200D01*
Y900000D02*
X1875000Y900000D01*
X1925000Y974200D02*
X1950000Y999200D01*
X1925000Y900000D02*
Y974200D01*
Y825000D02*
Y900000D01*
X1875000Y825000D02*
Y900000D01*
X1905400Y1024600D02*
Y1080400D01*
X1970000Y1145000D01*
Y1215000D01*
X1935000Y1250000D02*
X1970000Y1215000D01*
X1875000Y1250000D02*
X1935000D01*
X1950000Y1050000D02*
Y1065000D01*
X2000000Y1115000D01*
Y1305000D01*
X1875000Y1430000D02*
X2000000Y1305000D01*
X1687500Y487500D02*
X1725400Y525400D01*
X1601000Y487500D02*
X1687500D01*
X1751000Y350400D02*
X1784600D01*
X1800000Y365800D01*
Y500000D01*
X1774600Y525400D02*
X1800000Y500000D01*
X1750000Y525400D02*
X1774600D01*
X1691000Y565000D02*
X1795000D01*
X1885000Y455000D02*
X1940000Y400000D01*
X1885000Y455000D02*
Y577500D01*
X1950000Y640000D02*
Y640000D01*
X1860000Y730000D02*
X1950000Y640000D01*
X1301200Y600000D02*
X1375000Y526200D01*
Y500000D02*
Y526200D01*
X1398800Y625000D02*
X1430000D01*
X1470000Y665000D01*
X1575000D01*
X580000Y570000D02*
X581200D01*
X525000Y310000D02*
X560000Y275000D01*
X525000Y310000D02*
Y525000D01*
X570000Y570000D01*
X580000D01*
X650000Y275000D02*
X795000D01*
X815000Y295000D01*
Y315000D01*
X851200Y300000D02*
X1050000D01*
D15*
X1176800Y853000D02*
X1193000D01*
X575000Y955000D02*
Y975000D01*
X1275000Y300000D02*
X1276200Y301200D01*
Y350000D01*
X1300000Y300000D02*
X1325000Y325000D01*
X1360000D01*
X1110000Y310000D02*
X1150000D01*
X1150000Y310000D02*
X1200000D01*
X1150000Y310000D02*
X1150000Y310000D01*
X1200000D02*
Y310000D01*
X1175000Y335000D02*
X1200000Y310000D01*
X1175000Y285000D02*
X1200000Y310000D01*
X1240000Y310000D02*
X1250000Y300000D01*
X1200000Y310000D02*
X1240000D01*
X1300000Y751600D02*
Y775000D01*
X525000Y887001D02*
X528000Y890000D01*
X525000Y855000D02*
Y887001D01*
X450000Y851200D02*
Y890000D01*
X1570000Y775000D02*
X1650000D01*
X1520000Y725000D02*
X1570000Y775000D01*
X1365000Y725000D02*
X1520000D01*
X949600Y730400D02*
X955000Y725000D01*
X1365000D01*
X1374600Y734600D01*
Y750000D01*
X524200Y735800D02*
Y750000D01*
X949600Y730400D02*
Y751200D01*
X525000Y800000D02*
Y855000D01*
Y750800D02*
Y800000D01*
X1400000Y750000D02*
Y775000D01*
X1425000Y800000D01*
X1374600Y750000D02*
Y799600D01*
X1375000Y800000D02*
Y855000D01*
Y887001D01*
X1378000Y890000D01*
X1350000Y800000D02*
Y880000D01*
Y790000D02*
Y800000D01*
X1323800Y763800D02*
X1350000Y790000D01*
X1323800Y750000D02*
Y763800D01*
X975000Y751200D02*
Y775000D01*
X949600Y751200D02*
X950000Y751600D01*
Y800000D01*
Y855000D01*
X873400Y751200D02*
Y772200D01*
X875000Y773800D01*
Y775000D02*
X900000Y800000D01*
X925000D02*
Y885000D01*
Y790000D02*
Y800000D01*
X898800Y763800D02*
X925000Y790000D01*
X898800Y751200D02*
Y763800D01*
X950000Y887001D02*
X953000Y890000D01*
X950000Y855000D02*
Y887001D01*
X448000Y750000D02*
Y773000D01*
X450000Y775000D01*
X475000Y800000D01*
X549600Y750000D02*
Y774600D01*
X575000Y800000D01*
Y855000D01*
X473400Y750000D02*
Y758400D01*
X500000Y785000D01*
Y800000D01*
Y880000D01*
X725000Y350000D02*
X773800D01*
X775000Y351200D02*
Y375000D01*
X773800Y350000D02*
X775000Y351200D01*
X773800Y325000D02*
X775000Y323800D01*
Y300000D02*
Y323800D01*
X1298400Y750000D02*
X1300000Y751600D01*
Y775000D02*
X1325000Y800000D01*
X1425000D02*
Y855000D01*
D16*
X1651000Y281000D02*
X1711000D01*
X1350000Y1050000D02*
X1425000D01*
X1651000Y400000D02*
Y450000D01*
X1601000Y400000D02*
Y450000D01*
X1566000Y560000D02*
X1575000Y551000D01*
X1435000Y560000D02*
X1566000D01*
X1375000Y500000D02*
X1435000Y560000D01*
X1601000Y300000D02*
Y350000D01*
Y400000D01*
X1355000Y480000D02*
X1375000Y500000D01*
X1651000Y300000D02*
Y350000D01*
Y281000D02*
Y300000D01*
X1625000Y255000D02*
X1651000Y281000D01*
X1495000Y255000D02*
X1625000D01*
X1425000Y325000D02*
X1495000Y255000D01*
X1651000Y400000D02*
X1720000D01*
X1651000Y450000D02*
X1710000D01*
X1601000D02*
Y487500D01*
Y525000D01*
X1575000Y551000D02*
X1601000Y525000D01*
X1711000Y281000D02*
X1839000D01*
X1860000Y260000D01*
X1970000D01*
X2000000Y290000D01*
Y670000D01*
X1950000Y720000D02*
X2000000Y670000D01*
X1895000Y320000D02*
X1950000D01*
X1840000Y375000D02*
X1895000Y320000D01*
X1840000Y375000D02*
Y520000D01*
X1795000Y565000D02*
X1840000Y520000D01*
X1940000Y400000D02*
X1950000D01*
X1575000Y551000D02*
Y665000D01*
Y730000D01*
D17*
X1330000Y405000D02*
X1455000Y530000D01*
X1305000Y405000D02*
X1330000D01*
X935000Y610000D02*
Y635000D01*
X895000Y570000D02*
X935000Y610000D01*
X1149600Y494600D02*
Y500000D01*
X1130000Y475000D02*
X1149600Y494600D01*
X860000Y475000D02*
X1130000D01*
X1175000Y495000D02*
Y500000D01*
X1140000Y460000D02*
X1175000Y495000D01*
X875000Y460000D02*
X1140000D01*
X905000Y555000D02*
X1060000Y710000D01*
X905000Y540000D02*
X1060000Y695000D01*
X920000Y615000D02*
Y640000D01*
X890000Y585000D02*
X920000Y615000D01*
X450000Y890000D02*
X450000Y890000D01*
X1260000Y450000D02*
X1305000Y405000D01*
X1145000Y450000D02*
X1260000D01*
X1124200Y429200D02*
X1145000Y450000D01*
X850000Y350000D02*
X850000Y350000D01*
X610000Y325000D02*
X610000Y325000D01*
X635000Y370000D02*
X720000Y455000D01*
X840000D01*
X860000Y475000D01*
X855000Y440000D02*
X875000Y460000D01*
X640000Y345000D02*
Y350000D01*
X730000Y440000D01*
X855000D01*
D19*
X1455000Y530000D02*
X1550000D01*
X935000Y635000D02*
X949600Y649600D01*
X1060000Y710000D02*
X1355000D01*
X1374600Y690400D01*
X1315000Y695000D02*
X1323800Y686200D01*
X1060000Y695000D02*
X1315000D01*
X790000Y540000D02*
X905000D01*
X1323800Y673800D02*
Y686200D01*
X949600Y649600D02*
Y675000D01*
X675000Y570000D02*
X895000D01*
X660000Y585000D02*
X890000D01*
X650000Y545000D02*
X675000Y570000D01*
X580000Y545000D02*
X590000D01*
X645000Y600000D02*
X775000D01*
X590000Y545000D02*
X645000Y600000D01*
X620000Y545000D02*
X660000Y585000D01*
X1374600Y673800D02*
Y690400D01*
X898800Y661200D02*
X920000Y640000D01*
X898800Y661200D02*
Y675000D01*
X670000Y535000D02*
X690000Y555000D01*
X905000D01*
D20*
X285000Y1195000D02*
D03*
Y885000D02*
D03*
X1565000Y1195000D02*
D03*
Y885000D02*
D03*
X1140000D02*
D03*
X715000D02*
D03*
X1140000Y1195000D02*
D03*
X715000D02*
D03*
X1000000Y1420000D02*
D03*
X1275000D02*
D03*
X450000D02*
D03*
X725000D02*
D03*
D21*
X1525000Y853000D02*
D03*
X1475000D02*
D03*
X1251200Y390000D02*
D03*
X1225800D02*
D03*
X1200400D02*
D03*
X1378000Y890000D02*
D03*
X953000D02*
D03*
X528000Y890000D02*
D03*
X325000Y985000D02*
D03*
X350000Y1075000D02*
D03*
X650000D02*
D03*
X675000Y985000D02*
D03*
X750000D02*
D03*
X775000Y1075000D02*
D03*
X1100000Y985000D02*
D03*
X1075000Y1075000D02*
D03*
X1175000Y985000D02*
D03*
X1200000Y1075000D02*
D03*
X1500000D02*
D03*
X1525000Y985000D02*
D03*
X1200000Y853000D02*
D03*
X1250000Y853000D02*
D03*
X1100000D02*
D03*
X1050000D02*
D03*
X825000D02*
D03*
X775000D02*
D03*
X675000D02*
D03*
X625000D02*
D03*
X549600Y750000D02*
D03*
X524200D02*
D03*
X498800D02*
D03*
X473400D02*
D03*
X448000D02*
D03*
X422600D02*
D03*
X575000Y673800D02*
D03*
X549600D02*
D03*
X524200D02*
D03*
X498800D02*
D03*
X473400D02*
D03*
X448000D02*
D03*
X422600D02*
D03*
X400000Y853000D02*
D03*
X350000D02*
D03*
X975000Y751200D02*
D03*
X949600D02*
D03*
X924200D02*
D03*
X898800D02*
D03*
X873400D02*
D03*
X848000D02*
D03*
X1000400Y675000D02*
D03*
X975000D02*
D03*
X949600D02*
D03*
X924200D02*
D03*
X898800D02*
D03*
X873400D02*
D03*
X848000D02*
D03*
X1400000Y750000D02*
D03*
X1374600D02*
D03*
X1349200D02*
D03*
X1323800D02*
D03*
X1298400D02*
D03*
X1273000D02*
D03*
X1425400Y673800D02*
D03*
X1400000D02*
D03*
X1374600D02*
D03*
X1349200D02*
D03*
X1323800D02*
D03*
X1298400D02*
D03*
X1273000D02*
D03*
D22*
X1525000Y775000D02*
D03*
X1475000D02*
D03*
X325000Y1075000D02*
D03*
X350000Y997000D02*
D03*
X650000D02*
D03*
X675000Y1075000D02*
D03*
X750000D02*
D03*
X775000Y997000D02*
D03*
X1100000Y1075000D02*
D03*
X1075000Y997000D02*
D03*
X1175000Y1075000D02*
D03*
X1200000Y997000D02*
D03*
X1500000D02*
D03*
X1525000Y1075000D02*
D03*
X1200000Y775000D02*
D03*
X1250000Y775000D02*
D03*
X1100000D02*
D03*
X1050000D02*
D03*
X825000D02*
D03*
X775000D02*
D03*
X675000D02*
D03*
X625000D02*
D03*
X575000Y750000D02*
D03*
X400000Y775000D02*
D03*
X350000D02*
D03*
X1000400Y751200D02*
D03*
X1425400Y750000D02*
D03*
D23*
X1750000Y1180000D02*
D03*
X1650000D02*
D03*
D24*
X1719100Y965000D02*
D03*
X1700000D02*
D03*
D25*
X1680900D02*
D03*
D26*
X1175000Y390000D02*
D03*
X1300000Y890000D02*
D03*
X875000D02*
D03*
X450000Y890000D02*
D03*
D27*
X1601000Y450000D02*
D03*
Y400000D02*
D03*
Y350000D02*
D03*
Y300000D02*
D03*
X1375000Y625000D02*
D03*
X1475000Y1050000D02*
D03*
X750000Y475000D02*
D03*
X750000Y540000D02*
D03*
X1000000Y800000D02*
D03*
Y855000D02*
D03*
X950000Y625000D02*
D03*
X925000Y800000D02*
D03*
X1125000Y625000D02*
D03*
X1175000D02*
D03*
X1100000Y550000D02*
D03*
X1175000Y285000D02*
D03*
X1065000Y630000D02*
D03*
X1020000D02*
D03*
X525000Y625000D02*
D03*
X500000Y800000D02*
D03*
X1050000Y300000D02*
D03*
X1175000Y335000D02*
D03*
X1665000Y915000D02*
D03*
X1450000Y450000D02*
D03*
X1875000Y825000D02*
D03*
X375000Y1050000D02*
D03*
X625000D02*
D03*
X800000D02*
D03*
X1050000D02*
D03*
X1225000D02*
D03*
X1425000Y855000D02*
D03*
Y800000D02*
D03*
X1350000D02*
D03*
X575000D02*
D03*
Y855000D02*
D03*
X375000Y350000D02*
D03*
X325000Y450000D02*
D03*
Y500000D02*
D03*
Y550000D02*
D03*
X610000Y275000D02*
D03*
X560000D02*
D03*
X675000Y300000D02*
D03*
Y350000D02*
D03*
D28*
X1651000Y450000D02*
D03*
Y400000D02*
D03*
Y350000D02*
D03*
Y300000D02*
D03*
X1325000Y625000D02*
D03*
X1425000Y1050000D02*
D03*
X950000Y800000D02*
D03*
Y855000D02*
D03*
X900000Y625000D02*
D03*
Y800000D02*
D03*
X1125000Y550000D02*
D03*
Y285000D02*
D03*
X475000Y625000D02*
D03*
Y800000D02*
D03*
X1075000Y300000D02*
D03*
X1125000Y335000D02*
D03*
X1640000Y915000D02*
D03*
X1925000Y825000D02*
D03*
X425000Y1050000D02*
D03*
X575000D02*
D03*
X850000D02*
D03*
X1000000D02*
D03*
X1275000D02*
D03*
X1375000Y855000D02*
D03*
Y800000D02*
D03*
X1325000D02*
D03*
X525000D02*
D03*
Y855000D02*
D03*
X325000Y350000D02*
D03*
X375000Y450000D02*
D03*
Y500000D02*
D03*
Y550000D02*
D03*
X725000Y300000D02*
D03*
Y350000D02*
D03*
D29*
X1398800Y625000D02*
D03*
X1475000D02*
D03*
X1450000Y775000D02*
D03*
Y851200D02*
D03*
X1500000Y775000D02*
D03*
Y851200D02*
D03*
X1025000Y775000D02*
D03*
Y851200D02*
D03*
X1075000Y775000D02*
D03*
Y851200D02*
D03*
X580000Y545000D02*
D03*
X503800D02*
D03*
X800000Y775000D02*
D03*
Y851200D02*
D03*
X750000Y775000D02*
D03*
Y851200D02*
D03*
X875000Y850000D02*
D03*
Y773800D02*
D03*
X1223800Y625000D02*
D03*
X1300000D02*
D03*
X1225000Y600000D02*
D03*
X1301200D02*
D03*
X650000Y775000D02*
D03*
Y851200D02*
D03*
X600000Y775000D02*
D03*
Y851200D02*
D03*
X581200Y570000D02*
D03*
X505000D02*
D03*
X325000Y775000D02*
D03*
Y851200D02*
D03*
X375000Y775000D02*
D03*
Y851200D02*
D03*
X1200000Y350000D02*
D03*
X1276200D02*
D03*
X1323800Y425000D02*
D03*
X1400000D02*
D03*
Y450000D02*
D03*
X1323800D02*
D03*
X1300000Y773800D02*
D03*
Y850000D02*
D03*
X1175000Y775000D02*
D03*
Y851200D02*
D03*
X1225000Y775000D02*
D03*
Y851200D02*
D03*
X450000Y851200D02*
D03*
Y775000D02*
D03*
X450000Y375000D02*
D03*
Y298800D02*
D03*
X425000Y375000D02*
D03*
Y298800D02*
D03*
X400000Y375000D02*
D03*
Y298800D02*
D03*
Y428800D02*
D03*
Y505000D02*
D03*
X425000Y428800D02*
D03*
Y505000D02*
D03*
X450000Y428800D02*
D03*
Y505000D02*
D03*
X851200Y300000D02*
D03*
X775000D02*
D03*
X850000Y325000D02*
D03*
X773800D02*
D03*
X850000Y350000D02*
D03*
X773800D02*
D03*
X851200Y375000D02*
D03*
X775000D02*
D03*
D30*
X1300800Y975000D02*
D03*
X1450800D02*
D03*
X1249200Y1125000D02*
D03*
X1399200D02*
D03*
X875800Y975000D02*
D03*
X1025800D02*
D03*
X824200Y1125000D02*
D03*
X974200D02*
D03*
X549600D02*
D03*
X399600D02*
D03*
X450400Y975000D02*
D03*
X600400D02*
D03*
D31*
X1275400D02*
D03*
X1250000D02*
D03*
X1425400D02*
D03*
X1400000D02*
D03*
X1274600Y1125000D02*
D03*
X1300000D02*
D03*
X1424600D02*
D03*
X1450000D02*
D03*
X850400Y975000D02*
D03*
X825000D02*
D03*
X1000400D02*
D03*
X975000D02*
D03*
X849600Y1125000D02*
D03*
X875000D02*
D03*
X999600D02*
D03*
X1025000D02*
D03*
X575000D02*
D03*
X600400D02*
D03*
X425000D02*
D03*
X450400D02*
D03*
X425000Y975000D02*
D03*
X399600D02*
D03*
X575000D02*
D03*
X549600D02*
D03*
D32*
X1350000Y1050000D02*
D03*
X925000D02*
D03*
X500000D02*
D03*
X297540Y1275000D02*
D03*
X1900000Y1180000D02*
D03*
D33*
X750000Y425000D02*
D03*
X750000Y515000D02*
D03*
X1125000Y600000D02*
D03*
X1175000D02*
D03*
X1065000Y580000D02*
D03*
X1020000D02*
D03*
X1450000Y425000D02*
D03*
X610000Y325000D02*
D03*
X560000D02*
D03*
D34*
X1050000Y550000D02*
D03*
X1000000D02*
D03*
X560000Y355000D02*
D03*
X610000D02*
D03*
D35*
X1324200Y500000D02*
D03*
D36*
X1375000D02*
D03*
D37*
X1251200D02*
D03*
X1225800D02*
D03*
X1200400D02*
D03*
X1175000D02*
D03*
X1149600D02*
D03*
X1124200D02*
D03*
X1098800D02*
D03*
X1073400D02*
D03*
X1048000D02*
D03*
X1022600D02*
D03*
X997200D02*
D03*
X971800D02*
D03*
X946400D02*
D03*
X921000D02*
D03*
Y423800D02*
D03*
X946400D02*
D03*
X971800D02*
D03*
X997200D02*
D03*
X1022600D02*
D03*
X1048000D02*
D03*
X1073400D02*
D03*
X1098800D02*
D03*
X1124200D02*
D03*
X1149600D02*
D03*
X1175000D02*
D03*
X1200400D02*
D03*
X1225800D02*
D03*
X1251200D02*
D03*
D38*
X1250000Y300000D02*
D03*
X1300000D02*
D03*
X1625000Y850000D02*
D03*
Y825000D02*
D03*
X1775000D02*
D03*
Y850000D02*
D03*
X1625000Y687500D02*
D03*
Y637500D02*
D03*
X1775000D02*
D03*
Y687500D02*
D03*
D39*
X1275000Y300000D02*
D03*
D40*
X1360000Y325000D02*
D03*
X1425000D02*
D03*
D41*
X1000000Y1310000D02*
D03*
X1275000D02*
D03*
X450000D02*
D03*
X725000D02*
D03*
D42*
X1625000Y837500D02*
D03*
X1775000D02*
D03*
D43*
X1750000Y550800D02*
D03*
X1751000Y375800D02*
D03*
X1950000Y1050000D02*
D03*
D44*
X1750000Y525400D02*
D03*
Y500000D02*
D03*
X1751000Y350400D02*
D03*
Y325000D02*
D03*
X1950000Y1024600D02*
D03*
Y999200D02*
D03*
D45*
X1475000Y1250000D02*
D03*
D46*
Y1430000D02*
D03*
X1875000Y1250000D02*
D03*
Y1430000D02*
D03*
D47*
X1525000Y1420000D02*
D03*
X1825000Y1260000D02*
D03*
X1950000Y720000D02*
D03*
Y640000D02*
D03*
Y480000D02*
D03*
Y560000D02*
D03*
Y400000D02*
D03*
Y320000D02*
D03*
D48*
X1200000Y550000D02*
D03*
X923400Y350000D02*
D03*
X349600Y400000D02*
D03*
D49*
X1225400Y550000D02*
D03*
X1250800D02*
D03*
X1276200D02*
D03*
X1075800Y350000D02*
D03*
X1050400D02*
D03*
X1025000D02*
D03*
X999600D02*
D03*
X948800D02*
D03*
X974200D02*
D03*
X451200Y400000D02*
D03*
X425800D02*
D03*
X400400D02*
D03*
X375000D02*
D03*
D50*
X1925000Y900000D02*
D03*
X1651000Y525000D02*
D03*
D51*
X1875000Y900000D02*
D03*
X1601000Y525000D02*
D03*
D52*
X600000Y625000D02*
D03*
X620000Y545000D02*
D03*
D53*
X375000Y1150000D02*
D03*
X775000Y600000D02*
D03*
X1650000Y775000D02*
D03*
X650000Y545000D02*
D03*
X670000Y535000D02*
D03*
X790000Y540000D02*
D03*
X635000Y370000D02*
D03*
X640000Y345000D02*
D03*
X805000Y1175000D02*
D03*
X1200000Y1150000D02*
D03*
X1550000Y530000D02*
D03*
D54*
X1000000Y1050000D02*
X1005000D01*
X925000D02*
X1000000D01*
X500000D02*
X575000D01*
M02*
