M48
;Layer_Color=9474304
;FILE_FORMAT=4:4
METRIC,LZ
;TYPE=PLATED
T1F00S00C0.7000
T2F00S00C0.7112
T3F00S00C0.7620
T4F00S00C0.8000
T5F00S00C0.8128
T6F00S00C0.8500
T7F00S00C0.9000
T8F00S00C1.0000
T9F00S00C1.1000
T10F00S00C2.0000
T11F00S00C2.5000
T12F00S00C3.5000
T13F00S00C4.5000
%
T01
X0056Y00355
X0061
X01Y0055
X0105
T02
X0064Y00345
X00635Y0037
X0165Y00775
X0155Y0053
X0079Y0054
X00775Y006
X0067Y00535
X0065Y00545
X00375Y0115
X00805Y01175
X012Y0115
T03
X0062Y00545
X006Y00625
T04
X00325Y0035
X00375
X0056Y00325
X0061
Y00275
X0056
X00675Y003
X00725
Y0035
X00675
X0105Y003
X01075
X01125Y00285
X01175
X01175Y00335
X01125
X0136Y00325
X01425
X01601Y0035
X01651
Y003
X01601
Y004
Y0045
X01651
Y004
Y00525
X01601
X01625Y006375
Y006875
X01775
Y006375
X01375Y00625
X01325
X0145Y0045
Y00425
X01175Y006
Y00625
X01125
Y006
Y0055
X011
X01065Y0058
X0102
Y0063
X01065
X0095Y00625
X009
X0075Y0054
Y00515
X0075Y00475
Y00425
X00525Y00625
X00475
X00375Y0055
Y005
Y0045
X00325
Y005
Y0055
X00375Y0105
X00425
X00575
X00625
X00575Y00855
X00525
Y008
X005
X00475
X00575
X009
X00925
X0095
X01
Y00855
X0095
X01Y0105
X0105
X0085
X008
X01225
X01275
X01425
X01475
X01425Y00855
X01375
Y008
X0135
X01325
X01425
X01625Y00825
Y0085
X0164Y00915
X01665
X016809Y00965
X017
X017191
X01775Y0085
Y00825
X01875
X01925
Y009
X01875
T05
X012004Y004238
X012258
X012512
Y005
X012258
X012004
X01175
X011496
X011242
X010988
X010734
X01048
X010226
X009972
X009718
X009464
X00921
Y004238
X009464
X009718
X009972
X010226
X01048
X010734
X010988
X011242
X011496
X01175
T06
X004Y002988
X00425
X0045
Y00375
X00425
X004
X00775
X007738Y0035
Y00325
X00775Y003
X008512
X0085Y00325
Y0035
X008512Y00375
X012Y0035
X012762
X013238Y00425
Y0045
X014
Y00425
X013988Y00625
X01475
X0145Y00775
X015
X013Y007738
X01225Y00775
X012238Y00625
X01225Y006
X013012
X013Y00625
X01175Y00775
X01075Y00775
X01025
X00875Y007738
X008Y00775
X0075
X0065
X006
X0045
X00505Y0057
X005038Y00545
X0058
X005812Y0057
X0045Y00505
X00425
X004
Y004288
X00425
X0045
X00375Y00775
X00325
Y008512
X00375
X0045
X006
X0065
X0075
X008
X00875Y0085
X01025Y008512
X01075
X01175Y008512
X01225
X013Y0085
X0145Y008512
X015
T07
X009234Y0035
X009488
X009742
X009996
X01025
X010504
X010758
X01175Y0039
X012004
X012258
X012512
X0125Y003
X01275
X013
X012762Y0055
X012508
X012254
X012
X01273Y006738
X012984
X013238
X013492
X013746
X014
X014254
Y0075
X014
X013746
X013492
X013238
X012984
X01273
X0125Y00775
X012Y00775
X01475Y00775
X01525
X011
X0105
X010004Y007512
X00975
X009496
X009242
X008988
X008734
X00848
X00825Y00775
X00848Y00675
X008734
X008988
X009242
X009496
X00975
X010004
X00775Y00775
X00675
X00625
X00575Y0075
X005496
X005242
X004988
X004734
X00448
X004226
X004Y00775
X004226Y006738
X00448
X004734
X004988
X005242
X005496
X00575
X004512Y004
X004258
X004004
X00375
X003496
X0035Y00775
Y00853
Y00997
X00325Y00985
Y01075
X0035
X004Y00853
X0045Y0089
X00528
X00625Y00853
X00675
X00775
Y00997
X0075Y00985
X00675
X0065Y00997
Y01075
X00675
X0075
X00775
X00825Y00853
X00875Y0089
X00953
X0105Y00853
X011
Y00985
X01075Y00997
Y01075
X011
X01175
Y00985
X012Y00997
Y01075
X012Y00853
X0125Y00853
X013Y0089
X01378
X01475Y00853
X01525
Y00985
X015Y00997
Y01075
X01525
T08
X01751Y00325
Y003504
Y003758
X0195Y0032
Y004
Y0048
Y0056
Y0064
Y0072
X0175Y005508
Y005254
Y005
X006004Y00975
X00575
X005496
X004504
X00425
X003996
Y01125
X00425
X004504
X005496
X00575
X006004
X008242
X008496
X00875
X009742
X009996
X01025
X010258Y00975
X010004
X00975
X008758
X008504
X00825
X0125
X012754
X013008
X014
X014254
X014508
X0145Y01125
X014246
X013992
X013
X012746
X012492
X0195Y0105
Y010246
Y009992
X01875Y0125
Y0143
X01475
Y0125
T09
X013242Y005
X01375
T10
X0165Y0118
X0175
X01275Y0131
Y0142
X01
Y0131
X00725
Y0142
X0045
Y0131
T11
X005Y0105
X00925
X0135
X019Y0118
X0029754Y01275
T12
X01825Y0126
X01525Y0142
T13
X00285Y00885
X00715
X0114
X01565
Y01195
X0114
X00715
X00285
M30
